<?xml version="1.0" encoding="UTF-8"?>
<svg width="1063" height="430" version="1.1" xmlns="http://www.w3.org/2000/svg" xmlns:dc="http://purl.org/dc/elements/1.1/" xmlns:rdf="http://www.w3.org/1999/02/22-rdf-syntax-ns#">
<title>Thales Alenia Space logo</title>
 <metadata>
  <rdf:RDF>
    <dc:format>image/svg+xml</dc:format>
    <dc:type rdf:resource="http://purl.org/dc/dcmitype/StillImage"/>
    <dc:title/>
  </rdf:RDF>
 </metadata>
 <path d="m937.6 147.1c-82.73 64.24-227.8 141.7-405.8 214.8l6.142-0.022c173.9-70.57 317.5-145.6 404.3-209.2-1.96-1.489-3.561-3.393-4.714-5.588zm92.87-111.3c-21.52-60.46-236.4-41.82-515.7 37.08 269.9-74.35 475.4-90.77 496.4-31.72 7.676 21.58-10.14 50.92-48.3 84.96 2.223 1.764 4.031 4.026 5.146 6.68 47.79-39.17 70.98-72.91 62.42-96.99" style="fill:#00a3c9"/>
 <path d="m44.62 145.2h-44.62v-16.11h108.6v16.11h-44.85v130.6h-19.15v-130.6" style="fill:#242a75"/>
 <path d="m116.3 121.2h19.15v65.75h0.4367c3.052-5.442 7.844-10.45 13.71-13.5 5.66-3.482 12.41-5.442 19.59-5.442 14.15 0 36.79 8.706 36.79 45.06v62.7h-19.15v-60.52c0-17.2-6.321-31.35-24.39-31.35-12.4 0-21.98 8.706-25.68 19.16-1.092 2.609-1.31 5.437-1.31 9.143v63.56h-19.15v-154.6" style="fill:#242a75"/>
 <path d="m286.1 222c-20.9-0.4309-44.62 3.264-44.62 23.72 0 12.63 8.27 18.29 17.85 18.29 13.93 0 22.85-8.7 25.9-17.63 0.6553-1.954 0.8735-4.132 0.8735-6.097v-18.29zm18.72 28.52c0 9.143 0.4475 18.07 1.528 25.26h-17.19l-1.747-13.28h-0.6499c-5.66 8.269-17.19 15.67-32.22 15.67-21.33 0-32.22-15.02-32.22-30.26 0-25.47 22.64-39.4 63.35-39.18v-2.184c0-8.706-2.402-24.59-23.95-24.38-10.01 0-20.24 2.828-27.64 7.833l-4.356-12.84c8.706-5.442 21.56-9.137 34.83-9.137 32.43 0 40.27 21.98 40.27 43.1v39.4" style="fill:#242a75"/>
 <path d="m348.1 275.8v-154.6h-19.15v154.6h19.15z" style="fill:#242a75"/>
 <path d="m440.2 212.7c0.2293-11.97-4.994-31.12-26.34-31.12-19.59 0-27.85 17.85-29.38 31.12h55.71zm-55.94 13.71c0.4313 25.91 16.76 36.58 35.92 36.58 13.72 0 22.2-2.402 29.18-5.229l3.477 13.5c-6.752 3.046-18.51 6.753-35.27 6.753-32.22 0-51.81-21.56-51.81-53.12 0-32 18.94-57.03 49.63-57.03 34.4 0 43.32 30.26 43.32 49.63 0 3.914-0.2186 6.965-0.6553 9.143l-73.79-0.224" style="fill:#242a75"/>
 <path d="m473.3 256.4c5.879 3.477 15.89 7.402 25.47 7.402 13.71 0 20.24-6.747 20.24-15.67 0-9.143-5.442-14.15-19.37-19.37-19.16-6.97-28.08-17.2-28.08-29.83 0-16.97 13.93-30.91 36.35-30.91 10.67 0 20.03 2.828 25.69 6.534l-4.574 13.71c-4.132-2.396-11.75-6.097-21.56-6.097-11.32 0-17.41 6.534-17.41 14.37 0 8.924 6.092 12.84 19.81 18.07 18.07 6.741 27.65 15.89 27.65 31.78 0 18.72-14.59 31.78-39.19 31.78-11.54 0-22.2-3.04-29.6-7.402l4.563-14.37" style="fill:#242a75"/>
 <path d="m628 214.8-14.59-42.23c-3.046-9.574-5.218-18.29-7.396-26.77h-0.6495c-1.96 8.488-4.362 17.63-7.195 26.55l-14.36 42.45h44.19zm-48.11 14.8-15.24 46.15h-19.59l49.85-146.7h22.85l50.06 146.7h-20.25l-15.67-46.15h-52.03" style="fill:#242a75"/>
 <path d="m700.8 275.8v-154.6h-19.15v154.6h19.15z" style="fill:#242a75"/>
 <path d="m792.8 212.7c0.224-11.97-4.994-31.12-26.34-31.12-19.58 0-27.86 17.85-29.38 31.12h55.72zm-55.94 13.71c0.4313 25.91 16.76 36.58 35.92 36.58 13.72 0 22.21-2.402 29.18-5.229l3.477 13.5c-6.747 3.046-18.5 6.753-35.27 6.753-32.22 0-51.81-21.56-51.81-53.12 0-32 18.94-57.03 49.64-57.03 34.4 0 43.32 30.26 43.32 49.63 0 3.914-0.2186 6.965-0.6553 9.143l-73.79-0.224" style="fill:#242a75"/>
 <path d="m828.5 198.9c0-11.1-0.2128-19.81-0.868-28.52h16.98l1.086 17.2h0.4371c5.229-9.798 17.42-19.59 34.82-19.59 14.59 0 37.23 8.706 37.23 44.84v62.92h-19.15v-60.74c0-16.98-6.321-31.35-24.38-31.35-12.41 0-22.2 8.924-25.69 19.6-0.8676 2.39-1.304 5.873-1.304 8.925v63.56h-19.16v-76.85" style="fill:#242a75"/>
 <path d="m942.8 275.8v-105.4h19.15v105.4h-19.15zm9.143-124.7c-7.183 0-11.98-5.655-11.98-12.41 0-6.741 5.011-12.19 12.41-12.19 7.402 0 12.19 5.447 12.19 12.19 0 6.758-4.787 12.41-12.4 12.41h-0.2186" style="fill:#242a75"/>
 <path d="m1043 222c-20.9-0.4309-44.63 3.264-44.63 23.72 0 12.63 8.269 18.29 17.85 18.29 13.93 0 22.86-8.7 25.9-17.63 0.6494-1.954 0.8734-4.132 0.8734-6.097v-18.29zm18.72 28.52c0 9.143 0.4309 18.07 1.523 25.26h-17.2l-1.741-13.28h-0.6552c-5.655 8.269-17.19 15.67-32.22 15.67-21.33 0-32.22-15.02-32.22-30.26 0-25.47 22.65-39.4 63.35-39.18v-2.184c0-8.706-2.396-24.59-23.95-24.38-10.02 0-20.25 2.828-27.65 7.833l-4.35-12.84c8.7-5.442 21.54-9.137 34.82-9.137 32.43 0 40.28 21.98 40.28 43.1v39.4" style="fill:#242a75"/>
 <path d="m698.3 383.4c5.559 3.852 13.42 6.634 22.06 6.634 11.72 0 22.51-6.937 22.51-19.43 0-7.867-4.322-13.57-15.27-19.43-13.26-7.245-20.67-15.58-20.67-26.68 0-18.66 16.04-30.53 35.17-30.53 10.18 0 17.73 2.934 21.28 5.403l-4.624 10.48c-3.236-2.004-9.714-5.084-17.89-4.933-12.95 0-20.66 8.488-20.66 16.97 0 8.477 5.24 13.26 16.19 19.27 12.8 6.942 19.74 15.12 19.74 27.76 0 18.04-14.03 32.23-37.47 32.23-10.49-0.1621-20.67-3.398-24.98-7.256l4.625-10.49" style="fill:#00a3c9"/>
 <path d="m782.5 386.9c3.387 2.62 8.174 4.166 14.34 4.166 16.5 0 30.23-20.51 30.23-40.1 0-7.866-3.399-17.27-14.34-17.27-10.03 0-22.51 11.41-26.38 32.38l-3.852 20.82zm-20.97 43.02 14.95-78.64c1.702-8.941 3.242-19.13 4.171-26.68h11.72l-2.01 14.18h0.3136c6.629-9.865 16.5-15.73 26.83-15.73 16.04 0 22.82 13.26 22.82 26.99 0 26.37-18.81 51.05-43.63 51.05-7.866 0-13.1-1.702-16.04-3.398h-0.3077l-6.019 32.23h-12.8" style="fill:#00a3c9"/>
 <path d="m907.2 334.3c-1.853-0.6158-4.468-1.086-8.79-1.086-19.28 0-35.16 20.05-35.16 40.88 0 8.325 2.928 16.49 12.65 16.49 10.79 0 23.44-13.87 26.98-33.77l4.322-22.51zm-8.174 65.08c0-4.474 0.7785-11.57 1.697-19.28h-0.3082c-8.174 15.58-18.51 20.98-28.99 20.98-13.26 0-21.44-10.49-21.44-24.68 0-26.06 19.13-53.36 51.51-53.36 7.094 0 14.96 1.231 20.04 2.777l-7.553 39.02c-2.469 12.95-3.399 26.21-3.091 34.54h-11.87" style="fill:#00a3c9"/>
 <path d="m981.1 396.5c-3.852 2.004-11.57 4.636-21.59 4.636-19.28 0-28.68-12.96-28.68-28.85 0-25.6 18.81-49.19 45.64-49.19 6.937 0 13.26 2.01 15.58 3.393l-3.706 10.03c-2.928-1.388-7.088-2.777-12.64-2.777-19.43 0-31.61 19.12-31.61 36.85 0 12.19 6.321 20.05 18.51 20.05 7.715 0 13.41-2.318 17.27-4.166l1.237 10.02" style="fill:#00a3c9"/>
 <path d="m1045 342.5c0-6.008-4.625-9.4-11.42-9.4-12.18 0-21.28 11.87-24.36 23.59 20.05 0.3135 35.78-2.464 35.78-14.03v-0.1568zm2.783 52.74c-5.566 3.09-14.65 5.868-24.68 5.868-19.74 0-28.38-13.58-28.38-30.08 0-22.51 16.65-47.95 40.71-47.95 14.19 0 21.9 8.482 21.9 19.28 0 19.58-22.05 24.67-49.64 24.2-0.6159 3.242-0.1509 10.18 1.54 14.19 2.928 6.786 8.941 10.02 16.65 10.02 8.79 0 15.42-2.62 20.05-5.09l1.859 9.563" style="fill:#00a3c9"/>
 <g transform="matrix(1.631 0 0 1.631 -91.53 -425.3)" style="fill:#232f5d">
  <path d="m83.09 480.3h-1.81q0.4297-2.174 1.563-2.917 1.133-0.7552 3.997-0.7552 3.112 0 4.023 0.9245 0.9115 0.9115 0.3906 3.49l-1.641 8.216h-1.823l0.4167-1.341-0.03906-0.013q-1.354 1.536-4.544 1.536-4.714 0-3.958-3.789 0.4557-2.253 1.68-3.112 1.224-0.8594 3.984-0.8594 3.281 0 3.685 1.289l0.03906-0.013 0.2995-1.51q0.4297-2.135-0.03906-2.76-0.4557-0.638-2.435-0.638-3.359 0-3.737 1.888-0.01302 0.0911-0.05208 0.3646zm2.37 2.799q-2.096 0-2.826 0.4427-0.7161 0.4427-1.003 1.901-0.3125 1.51 0.2083 2.005 0.5339 0.4818 2.448 0.4818 3.854 0 4.323-2.344 0.2995-1.471-0.3516-1.979-0.638-0.5078-2.799-0.5078z" style="fill:#232f5d"/>
  <path d="m109.1 473.3-3.177 15.91h-2.005l3.177-15.91h-5.794l0.3776-1.862h13.54l-0.3776 1.862z" style="fill:#232f5d"/>
  <path d="m118.8 471.5-1.367 6.862 0.026 0.026q1.042-1.745 4.206-1.745 4.688 0 3.854 4.167l-0.1042 0.5078-1.589 7.956h-1.823l1.589-7.956 0.0781-0.3516q0.5599-2.812-2.318-2.812-2.318 0-3.268 0.8333-0.9505 0.8203-1.432 3.281l-1.406 7.005h-1.823l3.555-17.77z" style="fill:#232f5d"/>
  <path d="m130.8 480.3h-1.81q0.4297-2.174 1.563-2.917 1.133-0.7552 3.997-0.7552 3.112 0 4.023 0.9245 0.9115 0.9115 0.3906 3.49l-1.641 8.216h-1.823l0.4167-1.341-0.0391-0.013q-1.354 1.536-4.544 1.536-4.714 0-3.958-3.789 0.4557-2.253 1.68-3.112 1.224-0.8594 3.984-0.8594 3.281 0 3.685 1.289l0.0391-0.013 0.2995-1.51q0.4297-2.135-0.0391-2.76-0.4557-0.638-2.435-0.638-3.359 0-3.737 1.888-0.013 0.0911-0.0521 0.3646zm2.37 2.799q-2.096 0-2.826 0.4427-0.7161 0.4427-1.003 1.901-0.3125 1.51 0.2083 2.005 0.5339 0.4818 2.448 0.4818 3.854 0 4.323-2.344 0.2995-1.471-0.3516-1.979-0.638-0.5078-2.799-0.5078z" style="fill:#232f5d"/>
  <path d="m146.1 471.5-3.555 17.77h-1.823l3.555-17.77z" style="fill:#232f5d"/>
  <path d="m155.1 485.5h1.862l-0.0781 0.4557q-0.3906 1.94-1.732 2.721-1.328 0.7682-4.284 0.7682-3.438 0-4.258-1.25-0.8203-1.263-0.013-5.286 0.7422-3.724 2.07-5 1.341-1.276 4.492-1.276 3.438 0 4.284 1.107 0.8464 1.107 0.1302 4.661l-0.1953 0.9766h-8.958q-0.5859 2.943-0.1172 3.75t2.786 0.8073q2.201 0 2.93-0.3776 0.7422-0.3906 1.003-1.667zm0.7031-3.542 0.1042-0.5859q0.4036-2.018-0.1432-2.617-0.5338-0.612-2.734-0.612-2.214 0-3.021 0.7161-0.7943 0.7031-1.276 3.099z" style="fill:#232f5d"/>
  <path d="m170.6 480.1h-1.823q0.2604-1.302-0.2083-1.615-0.4557-0.3125-2.643-0.3125-2.031 0-2.643 0.3385-0.612 0.3255-0.8724 1.589-0.3776 1.914 1.432 2.005l1.458 0.0781 1.849 0.0911q3.346 0.1693 2.669 3.542-0.4167 2.096-1.693 2.878t-4.258 0.7812q-3.06 0-4.062-0.7422-1.003-0.7422-0.612-2.721l0.1562-0.6771h1.888l-0.1042 0.5859q-0.2474 1.224 0.2864 1.641 0.5469 0.4036 2.383 0.4036 2.253 0 3.047-0.4297 0.8073-0.4297 1.081-1.797 0.3906-1.966-1.393-1.966-4.154 0-5.326-0.7031-1.172-0.7031-0.7292-2.917 0.4297-2.096 1.602-2.786 1.172-0.7031 4.258-0.7031 4.948 0 4.349 2.982z" style="fill:#232f5d"/>
  <path d="m195.7 471.5-20.25 23.11h-1.497l20.26-23.11z" style="fill:#232f5d"/>
  <path d="m207.9 471.5-3.177 15.91h9.141l-0.3776 1.862h-11.15l3.555-17.77z" style="fill:#232f5d"/>
  <path d="m224.6 485.5h1.862l-0.0781 0.4557q-0.3906 1.94-1.732 2.721-1.328 0.7682-4.284 0.7682-3.438 0-4.258-1.25-0.8203-1.263-0.013-5.286 0.7422-3.724 2.07-5 1.341-1.276 4.492-1.276 3.438 0 4.284 1.107 0.8464 1.107 0.1302 4.661l-0.1953 0.9766h-8.958q-0.5859 2.943-0.1172 3.75t2.786 0.8073q2.201 0 2.93-0.3776 0.7422-0.3906 1.003-1.667zm0.7031-3.542 0.1042-0.5859q0.4036-2.018-0.1432-2.617-0.5339-0.612-2.734-0.612-2.214 0-3.021 0.7161-0.7943 0.7031-1.276 3.099z" style="fill:#232f5d"/>
  <path d="m236.3 476.6q3.451 0 4.232 1.198 0.7943 1.198 0 5.208-0.8073 4.01-2.083 5.208-1.263 1.198-4.714 1.198-3.438 0-4.232-1.198-0.7812-1.198 0.026-5.208 0.7943-4.01 2.057-5.208 1.276-1.198 4.714-1.198zm-0.2995 1.51q-2.422 0-3.164 0.7943-0.7292 0.7812-1.393 4.102-0.6641 3.32-0.2474 4.115 0.4167 0.7812 2.839 0.7812 2.435 0 3.177-0.7812 0.7422-0.7943 1.406-4.115 0.6641-3.32 0.2344-4.102-0.4167-0.7943-2.852-0.7943z" style="fill:#232f5d"/>
  <path d="m244.6 476.8h1.758l-0.3906 1.693 0.0521 0.0391q1.211-1.914 4.518-1.914 2.669 0 3.424 0.9375t0.2214 3.594l-1.615 8.099h-1.823l1.589-7.943 0.0911-0.4688q0.3255-1.602-0.1823-2.148-0.4948-0.5599-2.24-0.5599-3.841 0-4.57 3.633l-1.497 7.487h-1.823z" style="fill:#232f5d"/>
  <path d="m259.6 480.3h-1.81q0.4297-2.174 1.563-2.917 1.133-0.7552 3.997-0.7552 3.112 0 4.023 0.9245 0.9115 0.9115 0.3906 3.49l-1.641 8.216h-1.823l0.4167-1.341-0.0391-0.013q-1.354 1.536-4.544 1.536-4.714 0-3.958-3.789 0.4557-2.253 1.68-3.112 1.224-0.8594 3.984-0.8594 3.281 0 3.685 1.289l0.0391-0.013 0.2995-1.51q0.4297-2.135-0.0391-2.76-0.4557-0.638-2.435-0.638-3.359 0-3.737 1.888-0.013 0.0911-0.0521 0.3646zm2.37 2.799q-2.096 0-2.826 0.4427-0.7161 0.4427-1.003 1.901-0.3125 1.51 0.2083 2.005 0.5338 0.4818 2.448 0.4818 3.854 0 4.323-2.344 0.2995-1.471-0.3516-1.979-0.638-0.5078-2.799-0.5078z" style="fill:#232f5d"/>
  <path d="m272.1 476.8h1.823l-0.4688 1.432 0.0391 0.0391q1.432-1.758 3.919-1.758 3.438 0 2.721 3.542l-0.1823 0.8594h-1.797l0.1042-0.3125q0.1302-0.4948 0.1693-0.6641 0.3776-1.914-1.706-1.914-3.047 0-3.789 3.763l-1.497 7.461h-1.823z" style="fill:#232f5d"/>
  <path d="m294 471.5-3.555 17.77h-1.823l0.4167-1.615-0.0521-0.013q-1.224 1.81-4.362 1.81-2.865 0-3.633-1.393t-0.013-5.195q0.7031-3.503 2.031-4.857 1.328-1.367 4.049-1.367 3.398 0 3.698 1.758l0.0391-0.026 1.38-6.875zm-6.81 6.654q-2.018 0-2.878 0.9375-0.8464 0.9245-1.406 3.763-0.625 3.125-0.1693 4.115 0.4557 0.9766 2.526 0.9766 2.253 0 3.125-0.9766 0.8854-0.9896 1.536-4.284 0.5338-2.669-0.026-3.594-0.5599-0.9375-2.708-0.9375z" style="fill:#232f5d"/>
  <path d="m301.4 476.6q3.451 0 4.232 1.198 0.7943 1.198 0 5.208-0.8073 4.01-2.083 5.208-1.263 1.198-4.714 1.198-3.438 0-4.232-1.198-0.7812-1.198 0.026-5.208 0.7943-4.01 2.057-5.208 1.276-1.198 4.714-1.198zm-0.2995 1.51q-2.422 0-3.164 0.7943-0.7292 0.7812-1.393 4.102-0.6641 3.32-0.2474 4.115 0.4167 0.7812 2.839 0.7812 2.435 0 3.177-0.7812 0.7422-0.7943 1.406-4.115 0.6641-3.32 0.2344-4.102-0.4167-0.7943-2.852-0.7943z" style="fill:#232f5d"/>
  <path d="m323.3 484.8h1.823l-0.1172 0.6771q-0.8073 3.997-6.042 3.997-3.359 0-4.193-1.263-0.8203-1.263-0.026-5.208 0.7292-3.698 2.096-5.013 1.367-1.328 4.453-1.328 3.034 0 3.958 0.8984 0.9375 0.8854 0.4427 3.346h-1.823l0.0651-0.3255q0.2865-1.445-0.3385-1.927-0.612-0.4818-2.747-0.4818-2.057 0-2.826 0.9114-0.7682 0.9115-1.406 4.089-0.625 3.099-0.1302 3.945 0.5078 0.8464 2.969 0.8464 2.083 0 2.747-0.5469 0.6771-0.5599 1.094-2.617z" style="fill:#232f5d"/>
  <path d="m334.4 476.6q3.451 0 4.232 1.198 0.7943 1.198 0 5.208-0.8073 4.01-2.083 5.208-1.263 1.198-4.714 1.198-3.438 0-4.232-1.198-0.7812-1.198 0.026-5.208 0.7943-4.01 2.057-5.208 1.276-1.198 4.714-1.198zm-0.2995 1.51q-2.422 0-3.164 0.7943-0.7292 0.7812-1.393 4.102-0.6641 3.32-0.2474 4.115 0.4167 0.7812 2.839 0.7812 2.435 0 3.177-0.7812 0.7422-0.7943 1.406-4.115 0.6641-3.32 0.2344-4.102-0.4167-0.7943-2.852-0.7943z" style="fill:#232f5d"/>
  <path d="m342.7 476.8h1.823l-0.4167 1.875 0.0391 0.0391q1.471-2.096 4.479-2.096 3.164 0 3.424 2.096h0.0521q1.589-2.096 4.701-2.096 4.401 0 3.503 4.492l-1.628 8.138h-1.823l1.667-8.307q0.3255-1.641-0.1432-2.227-0.4688-0.5859-2.096-0.5859-2.161 0-3.099 0.8203-0.9245 0.8073-1.38 3.099l-1.445 7.201h-1.823l1.628-8.138 0.0911-0.5729q0.4818-2.409-2.266-2.409-3.724 0-4.531 4.049l-1.419 7.07h-1.823z" style="fill:#232f5d"/>
  <path d="m364.8 476.8h1.823l-0.4036 1.576 0.0391 0.0391q1.315-1.797 4.453-1.797 2.773 0 3.529 1.406 0.7682 1.406 0.013 5.182-0.7031 3.503-2.031 4.87-1.328 1.354-4.023 1.354-3.073 0-3.724-1.654h-0.0391l-1.367 6.81h-1.823zm5.104 1.328q-2.188 0-3.047 0.9505-0.8464 0.9375-1.471 4.049-0.5729 2.878-0.0521 3.841 0.5208 0.9505 2.682 0.9505 2.057 0 2.904-0.9245 0.8464-0.9245 1.419-3.815 0.638-3.177 0.1823-4.115-0.4427-0.9375-2.617-0.9375z" style="fill:#232f5d"/>
  <path d="m379.6 480.3h-1.81q0.4297-2.174 1.562-2.917 1.133-0.7552 3.997-0.7552 3.112 0 4.023 0.9245 0.9115 0.9115 0.3906 3.49l-1.641 8.216h-1.823l0.4167-1.341-0.0391-0.013q-1.354 1.536-4.544 1.536-4.714 0-3.958-3.789 0.4557-2.253 1.68-3.112 1.224-0.8594 3.984-0.8594 3.281 0 3.685 1.289l0.0391-0.013 0.2995-1.51q0.4297-2.135-0.0391-2.76-0.4557-0.638-2.435-0.638-3.359 0-3.737 1.888-0.013 0.0911-0.0521 0.3646zm2.37 2.799q-2.096 0-2.826 0.4427-0.7162 0.4427-1.003 1.901-0.3125 1.51 0.2083 2.005 0.5338 0.4818 2.448 0.4818 3.854 0 4.323-2.344 0.2995-1.471-0.3516-1.979-0.638-0.5078-2.799-0.5078z" style="fill:#232f5d"/>
  <path d="m392 476.8h1.758l-0.3906 1.693 0.0521 0.0391q1.211-1.914 4.518-1.914 2.669 0 3.424 0.9375t0.2214 3.594l-1.615 8.099h-1.823l1.589-7.943 0.0911-0.4688q0.3255-1.602-0.1823-2.148-0.4948-0.5599-2.24-0.5599-3.841 0-4.57 3.633l-1.497 7.487h-1.823z" style="fill:#232f5d"/>
  <path d="m414.6 476.8-6.159 13.16q-1.302 2.786-2.422 3.828-1.107 1.042-2.786 1.042-0.3385 0-0.8464-0.0912l0.2995-1.51q0.3646 0.0781 0.612 0.0912 1.458 0.0781 2.669-2.383l0.599-1.224q0.026-0.0651 0.2083-0.4688h-0.6901l-2.018-12.45h1.94l0.8073 5.547 0.4167 2.76 0.1823 1.393 0.2083 1.38h0.0521l0.612-1.38 0.612-1.393 1.25-2.76 2.513-5.547z" style="fill:#232f5d"/>
 </g>
</svg>
