<?xml version="1.0" encoding="UTF-8" standalone="no"?>
<!-- Created with Inkscape (http://www.inkscape.org/) -->

<svg
   version="1.1"
   id="svg148"
   width="294.10706"
   height="166.85564"
   viewBox="0 0 294.10706 166.85564"
   sodipodi:docname="iame.png"
   xmlns:inkscape="http://www.inkscape.org/namespaces/inkscape"
   xmlns:sodipodi="http://sodipodi.sourceforge.net/DTD/sodipodi-0.dtd"
   xmlns="http://www.w3.org/2000/svg"
   xmlns:svg="http://www.w3.org/2000/svg">
  <defs
     id="defs152" />
  <sodipodi:namedview
     id="namedview150"
     pagecolor="#ffffff"
     bordercolor="#999999"
     borderopacity="1"
     inkscape:showpageshadow="0"
     inkscape:pageopacity="0"
     inkscape:pagecheckerboard="0"
     inkscape:deskcolor="#d1d1d1"
     showgrid="false" />
  <g
     inkscape:groupmode="layer"
     inkscape:label="Image"
     id="g154"
     transform="translate(-8.6335735,-7.7887803)">
    <g
       id="g2588"
       transform="translate(-7.2227778,-222.02121)">
      <path
         style="fill:#b3c8e9;stroke-width:1.33333"
         d="m 277.18969,345.39911 c 0,-1.72748 -4.85994,-2.00248 -35.66666,-2.0182 -19.61667,-0.01 -37.98667,0.0146 -39.56879,-0.40983 -1.98567,-0.53269 -3.16592,-4.09241 -6.09651,-10.64654 -3.90803,-8.74012 -4.20925,-10.4172 -3.79008,-21.10064 0.25045,-6.38323 -0.92222,-11.69296 -0.40637,-12.2079 41.40129,3.9557 -7.58532,-44.73269 47.70328,11.39816 4.73092,4.80297 -7.63416,25.257 -3.84153,25.37677 0.91666,0.0289 1.66666,0.61682 1.66666,1.30639 0,0.68957 0.9,0.9084 2,0.48629 1.1,-0.42211 2,-0.15089 2,0.6027 0,0.7536 0.6,0.99936 1.33334,0.54614 0.73333,-0.45323 1.33333,-0.31561 1.33333,0.30583 0,1.74801 18.918,2.03806 23.37136,0.35833 3.90579,-1.4732 10.31992,-8.54242 10.31992,-10.41422 0,-1.17308 -6.64867,-7.33278 -20.5369,-1.52493 -11.84735,-0.0316 -13.26475,-2.66272 -15.82403,-9.86789 14.71826,-1.41446 26.08081,-0.55152 42.00298,-0.19046 l 0.4121,-3.56504 c 1.10326,-9.54447 -5.96324,-21.44446 -15.67698,-26.40003 -12.59762,-3.25287 -12.8983,-4.22261 -28.93371,1.08342 -3.08421,1.38084 -26.70981,25.86201 -26.70981,25.36097 0,-0.50105 -16.02075,-16.9214 -17.89102,-14.16905 -8.9728,4.72238 5.4832,-15.43908 6.79942,-16.31027 1.16677,-0.75403 17.41471,-1.301 39,-1.31291 l 37,-0.0204 0.048,-3 c 0.0456,-2.8557 0.2096,-2.8076 3.40858,1 14.58008,17.35404 15.82799,41.22233 3.19657,61.14 -3.94188,6.21561 -6.65315,7.92448 -6.65315,4.19333 z"
         id="path2608"
         sodipodi:nodetypes="ssssscccssssssscccsccsccsccssss"
         inkscape:export-filename="../5f1c8502/aime_2.svg"
         inkscape:export-xdpi="96"
         inkscape:export-ydpi="96" />
      <path
         style="fill:#bac2d2;stroke-width:1.33333"
         d="m 277.18969,356.33245 c 0,-5.19501 0.57026,-8.93334 1.3627,-8.93334 2.02662,0 8.9042,-11.44162 11.40698,-18.97682 5.55313,-16.71885 2.40869,-33.44945 -9.0153,-47.96782 -3.44323,-4.37589 -3.84458,-5.83284 -3.48923,-12.66666 l 0.40152,-7.72203 15.77206,24.48301 c 8.67462,13.46566 16.01078,25.72272 16.30258,27.23792 0.31531,1.63726 -1.69493,6.27871 -4.95505,11.44076 -10.27392,16.26759 -25.44054,39.50135 -26.61508,40.77164 -0.68218,0.7378 -1.17118,-2.46321 -1.17118,-7.66666 z M 189.49,321.84216 c 0.21842,-12.85243 0.90474,-21.73616 1.69969,-22.00075 0.84387,-0.28088 1.16616,3.85717 0.87796,11.27229 -0.42045,10.81774 -0.128,12.44822 3.81417,21.26472 2.34824,5.25175 5.25316,9.81025 6.45538,10.13 1.2022,0.31974 -1.27904,0.65096 -5.51387,0.73602 l -7.69969,0.15467 z"
         id="path2606" />
      <path
         style="fill:#a2b9de;stroke-width:1.33333"
         d="m 224.16134,330.72221 c -4.82381,-4.8986 -5.41885,-6.53192 -5.41885,-15.2171 0,-4.98183 0.76335,-11.131 0.33495,-13.606 -0.53515,-3.09161 -0.3754,-3.92855 0.51041,-2.67413 4.23038,-5.75101 8.15648,-9.64119 22.35159,-13.80607 15.97075,-3.28199 21.47701,-1.45134 30.21002,2.42061 13.18816,5.84724 11.86665,22.40986 11.80599,28.06489 -0.0561,9.81095 -1.08305,19.61112 -8.73399,22.50066 -15.94238,6.07837 -41.20057,2.11573 -51.06012,-7.68286 z"
         id="path2604"
         sodipodi:nodetypes="cssccsccc" />
      <path
         style="fill:#75abfd;stroke-width:1.33333"
         d="m 45.939799,375.87486 c -0.513387,-2.82833 -1.833574,-9.16295 -2.933749,-14.07692 l -2.000317,-8.93451 -12.574691,-6.77883 c -6.91608,-3.72836 -12.574691,-6.98285 -12.574691,-7.23222 0,-0.24936 2.680348,-6.22836 5.956329,-13.28666 l 5.956331,-12.83328 c 49.238997,-0.64117 64.213108,-14.55052 73.422299,3.16861 1.1674,7.3005 0.30967,-7.39732 -2.344641,-0.57666 l -9.900815,25.44164 -6.124246,18.47503 -4.951303,18.72253 -10.91022,0.57562 c -5.367137,0.28317 -12.065931,1.19546 -14.912068,1.65057 l -5.17479,0.82749 z"
         id="path2602"
         sodipodi:nodetypes="sscsssccscccsscs" />
      <path
         style="fill:#bd72bc;stroke-width:1.33333"
         d="m 21.446394,300.66269 c -6.117484,-13.20858 -6.379014,-14.19731 -3.923377,-14.83248 0.916667,-0.2371 6.561087,-3.12565 12.543156,-6.41898 l 10.876488,-5.98788 2.243673,-10.01212 c 3.962299,-17.68128 3.280075,-16.6975 11.472424,-16.54338 3.958677,0.0745 10.607851,0.56268 14.775943,1.08491 l 7.578348,0.9495 6.01238,17.98608 c 5.362054,16.04062 13.669966,17.62538 11.656742,18.33247 16.410269,-26.27734 4.477687,19.72377 2.638023,29.86128 C 44.346018,313.03664 67.745433,313.95 36.779728,312.73244 h -9.743293 z"
         id="path2600"
         sodipodi:nodetypes="ssscscscsccccs" />
      <path
         style="fill:#fc9c3a;stroke-width:1.33333"
         d="m 140.21131,342.34012 -14.97838,-10.27434 -29.436964,-16.85916 9.690264,-20.10374 25.00825,-4.19325 c 13.24616,-37.7787 51.17809,0.2607 62.42229,4.65373 0,0 -4.05738,31.18981 -3.51465,39.4465 l -12.8988,7.19365 c -2.88605,1.60954 -8.38663,4.54242 -12.14256,6.66667 -3.75594,2.12424 -7.35594,3.83572 -8,3.80327 -0.64407,-0.0324 -7.9113,-4.68244 -16.14941,-10.33333 z m 16.15898,-69.08778 12.40025,6.74005 c 6.82014,3.70703 20.67115,13.32482 20.67635,14.2307 -10.53997,-4.73163 -37.45133,48.44675 -46.73582,48.14161 -17.07883,-0.56129 -10.45187,-53.1044 13.65922,-69.11236 z"
         id="path2598"
         sodipodi:nodetypes="cccccscsscsccscsc" />
      <path
         style="fill:#f56767;stroke-width:1.33333"
         d="m 95.26605,314.9423 c 0.632005,-1.14118 -4.404893,-20.61698 -6.533094,-30.87652 l -5.966604,-17.91824 -5.966604,-17.91824 5.194969,-4.48138 c 2.857234,-2.46476 7.726999,-6.6091 10.821701,-9.20965 l 5.626731,-4.72828 3.877631,3.1279 c 2.1327,1.72034 7.14828,5.96329 11.14573,9.42879 l 7.26808,6.30089 11.22755,-1.29078 c 19.28588,-2.2172 14.45501,-4.16574 17.80129,6.70508 5.72397,18.59508 3.93784,15.54089 6.85618,18.96333 -12.52943,9.97321 -13.04963,11.93607 -24.48299,18.07729 -7.26226,3.90079 -22.22784,6.23896 -36.87057,23.81981 z"
         id="path2596"
         sodipodi:nodetypes="ccccsscsscsscsc" />
      <path
         style="fill:#57fd57;stroke-width:1.33333"
         d="m 87.856354,387.7675 c -5.500001,-4.85693 -10.160657,-9.47676 -10.357014,-10.26627 -0.196358,-0.78949 2.253795,-9.23545 5.444783,-18.76878 l 5.801795,-17.33334 7.682537,-26.69269 c 21.456125,11.64635 19.873235,10.98663 31.308445,17.81978 0.34806,0 5.36696,4.7719 13.49287,10.35214 l 14.77439,10.14589 -0.81296,4.18744 c -0.44712,2.3031 -1.80607,8.60528 -3.0199,14.00486 l -2.20693,9.81741 -6.72068,-0.75167 c -3.69637,-0.41342 -10.32067,-1.13633 -14.72067,-1.60646 l -8,-0.85479 -10.84698,9.45571 c -5.96584,5.20065 -11.065837,9.42553 -11.333333,9.38865 -0.267494,-0.0369 -4.986353,-4.04093 -10.486353,-8.89788 z"
         id="path2594"
         sodipodi:nodetypes="ssscccscsscsscsss" />
      <path
         style="fill:#fd0303;stroke-width:1.33333"
         d="m 49.523019,276.02974 c -1.888106,-1.33122 -3,-3.49309 -3,-5.83292 0,-8.34032 10.916887,-11.09014 14.469576,-3.64469 1.626907,3.40954 1.542019,4.19695 -0.790585,7.33333 -3.17061,4.26314 -6.675584,4.96692 -10.678991,2.14428 z"
         id="path2592" />
      <path
         style="fill:#0d223c;stroke-width:1.33333"
         d="m 50.239267,318.06458 -0.382915,-29.33454 5,0.001 5,10e-4 v 29.33334 29.33333 h -4.617085 -4.617086 z m 23.039309,-5.33214 c -0.731142,-15.56343 7.144959,-24.32643 22.134855,-25.53241 5.515999,-0.49026 17.573279,7.81095 17.776259,3.53238 0,-1.39682 1.40741,-2 4.66666,-2 h 4.66667 v 24 24.00001 h -4.51116 c -3.54575,0 -4.6871,-0.64202 -5.3333,-3 -0.49455,-1.80462 -1.22061,-2.44104 -1.82217,-1.5972 -18.870337,12.77492 -37.337819,2.23934 -37.577814,-19.40278 z m 37.088104,-11.52171 c -4.75989,-5.73531 -15.159758,-6.94423 -21.570194,-2.50739 -5.05365,2.73335 -6.251448,9.62894 -6.273466,14.0291 -0.116287,5.45862 1.727366,10.61832 5.459859,13.70289 2.965917,2.32118 5.826375,3.2495 10.012782,3.2495 13.680689,1.70952 17.660389,-21.29091 12.371019,-28.4741 z m 34.48968,35.88376 -5,-0.52302 V 312.792 289.01254 l 5.12536,-0.48878 c 4.2378,-0.40414 5.02582,-0.10811 4.55052,1.70947 -0.98207,3.75539 1.66549,3.85946 6.94352,0.27295 6.63224,-4.50672 13.91777,-4.67233 19.72484,-0.44836 2.37733,1.72923 4.85209,4.02752 5.49945,5.10729 0.95652,1.59542 1.89328,1.14288 5,-2.41539 5.57102,-7.11572 20.64901,-4.62728 24.80814,-0.97151 4.59176,4.59177 4.9519,6.93311 4.58588,29.81419 l -0.23771,14.85995 -5,0.47726 -5,0.47725 0.25702,-16.55097 c 0.19187,-12.35453 -0.2394,-17.51097 -1.7009,-20.33721 -1.07687,-2.08243 -2.39252,-3.85402 -2.9237,-3.93688 -6.98041,-1.08883 -9.97133,-0.50772 -13.30941,2.58591 -2.01099,1.86372 -3.65635,3.82822 -3.65635,4.36555 0,0.53733 -0.45,1.42696 -1,1.97696 -0.55,0.55 -1,7.8 -1,16.11111 v 15.11112 h -5.50112 -5.5011 l 0.62289,-15.66667 c 0.84435,-21.23687 -0.40523,-24.2943 -10.19959,-24.95611 -2.73454,-0.18477 -5.13077,0.90012 -7.96,3.60388 l -4.04773,3.86824 -0.04,17.23654 c -0.022,9.4801 -0.04,17.13814 -0.04,17.01786 0,-0.12028 -2.25,-0.45404 -5,-0.7417 z m 100.33333,-0.52302 c -4.20685,-1.67256 -10.35805,-7.45971 -12.708,-11.95588 -2.39945,-4.59091 -2.81048,-18.437 -0.67036,-22.58226 4.61594,-8.9407 13.6388,-14.87376 23.11919,-15.20219 7.0004,-0.24252 17.36432,4.59096 20.53772,9.57828 1.27959,2.011 2.64039,3.95636 3.02399,4.32302 0.78394,0.74933 1.28962,2.70238 2.3303,9 l 0.71607,4.33334 h -20.01119 c -13.05989,1.63806 -25.49206,-4.37106 -22.08841,8.05298 1.76225,8.62981 19.22182,9.11673 25.35277,6.16151 3.47247,-1.80277 4.90903,-1.92444 7.7012,-0.65225 4.4839,2.043 3.76895,3.65575 -3.27104,7.37858 -6.24458,3.30222 -17.77416,4.05297 -24.03224,1.56487 z m 25.78284,-29.75393 c 0.94779,-2.46986 -3.61068,-8.24951 -8.50102,-10.7784 -9.24998,-4.29845 -23.4902,4.52142 -22.17294,10.58919 1.13772,2.96484 29.54163,3.14005 30.67396,0.18921 z"
         id="path2590"
         sodipodi:nodetypes="ccccccccccccscccssccccccccccccscsssccscccsscsssscccssscssscsssssssccccssssccs" />
    </g>
  </g>
</svg>
