<?xml version="1.0" encoding="utf-8"?>
<!-- Generator: Adobe Illustrator 19.2.1, SVG Export Plug-In . SVG Version: 6.00 Build 0)  -->
<svg version="1.1" id="Layer_1" xmlns="http://www.w3.org/2000/svg" xmlns:xlink="http://www.w3.org/1999/xlink" x="0px" y="0px"
	 viewBox="0 0 183 30" style="enable-background:new 0 0 183 30;" xml:space="preserve">
<style type="text/css">
	.st0{fill:#EB3C96;}
</style>
<title>logo</title>
<desc>Created with Sketch.</desc>
<g id="Page-1">
	<path id="logo" class="st0" d="M156.5,29.3L156.5,29.3H155c-0.3,0-0.6-0.3-0.6-0.6V1.9c0-0.3,0-0.6,0.3-0.7c0.3-0.2,1-0.2,1.5-0.2
		h1.8c2.3,0,4.2,1.9,4.2,4.2v10.2l6.4-6.5c1.3-1.2,5.9-5.9,5.9-5.9c1.1-1.2,2.7-2,4.6-2h1.1c0.8,0,1.4,0.2,1.8,0.8
		c0.1,0.2,0.4,0.5,0.5,0.9c0.1,0.5,0.1,1,0.1,1c0,1.3-0.5,2.5-1.4,3.5l-7,7.1c-1.9,1.8-0.3,3.7-0.3,3.7c0.8,0.8,2.4,1.9,3.8,2.4
		l1.7,0.7c2,0.9,3.2,2.8,3.2,4.8v2.9c0,0.4-0.2,0.7-0.6,0.7h-1.2c-1.6,0-3.5-0.9-3.5-0.9l-7.9-3.3c-0.8-0.4-1.7-0.7-2.7-0.8
		c-0.3-0.1-0.6-0.1-0.9-0.1h-0.6c-0.9,0.1-1.7,0.5-2.3,1.1c-1,1-1.8,1.8-1.8,1.8C160,28.4,158.4,29.3,156.5,29.3z M123.1,25.9
		c0.2,0.1,0.4,0.4,0.8,0.7v2c0,0.5-0.3,0.8-0.7,0.8H117c-1,0-2-0.3-2.9-1l-9.4-7.4c-0.6-0.5-1-1.5-1-2.5v-3c0-0.5,0.2-0.8,0.5-0.8
		c0.3,0,0.8,0.2,1,0.3c0.5,0.1,1.1,0.3,1.1,0.3c0.9,0.3,1.9,0.5,2.8,0.5c2,0,3.5-0.8,4-2.2c0.4-1.3-0.8-4.2-5.1-5.3
		c-3.3-0.8-6.2-0.2-7.1,1.4c0,0-0.1,0.2-0.2,0.5c-0.1,0.3-0.1,0.6-0.1,0.8v11.6c0,1.8-0.3,3.4-1.4,4.8c-0.6,0.8-1.4,1.5-2.4,1.8
		c-0.7,0.2-1.4,0.3-2,0.3c-0.5,0-1.2,0-1.6-0.2c-0.3-0.1-0.3-0.4-0.3-0.7v-1.9v-1.5v-4.3V1.7c0-0.3,0.3-0.6,0.6-0.6h11.4
		c1.9,0,3.8,0.4,5.7,1c2,0.6,3.7,1.5,5.3,2.6s2.8,2.4,3.8,3.9s1.5,3.1,1.5,4.8c0,1.8-0.6,3.2-1.6,4.4c-1.7,1.8-3.5,2.6-4,2.9
		c0.4,0.4,1.6,1.3,3.1,2.5C121.6,25.5,123.1,25.9,123.1,25.9z M85.7,22c1.4,0,2.5,0.4,3.3,1.4c0.8,0.8,1.2,1.8,1.2,3.2V29
		c0,0.3-0.3,0.6-0.6,0.6H77.9c-2.2,0-4.3-0.4-6.2-1.3c-2-0.9-3.7-2-5.1-3.5s-2.6-3.2-3.4-5.1c-0.9-2-1.3-4-1.3-6.2V1.8
		c0-0.3,0.3-0.6,0.6-0.6h11.7c2.1,0,4.2,0.4,6.1,1.3c1.9,0.8,3.6,2,5.1,3.4s2.6,3,3.5,4.7s1.3,3.3,1.3,4.9c0,1-0.2,1.7-0.7,2.4
		C89,18.6,88,19,86.6,19h-8c-3.4,0-5.1-2.5-5.4-3.2c-0.4-0.7-0.5-1.3-0.5-2.2c0-0.5,0.3-0.7,0.8-0.7h8.6c-1-1.2-2.3-2.4-3.6-3.2
		c-0.9-0.5-1.8-0.9-2.7-1.1c-0.5-0.1-1-0.2-1.6-0.2c-0.6,0-1.1,0.1-1.6,0.2c-0.3,0-0.8,0.2-1.2,0.4s-0.8,0.5-0.9,0.6
		c-0.9,0.8-1.3,1.9-1.3,3.4c0,1.2,0.2,2.3,0.6,3.4c0.5,1.1,1,2.1,1.8,2.9c0.4,0.4,1.7,1.6,2.6,2c1.1,0.4,2.1,0.7,3.3,0.7H85.7z
		 M59.2,5.2c0,0.2,0,23.3,0,23.3c0,0.4-0.3,0.8-0.8,0.8h-0.9h-1.8c-2.3,0-4.2-1.9-4.2-4.2v-5c0-2.1-1.8-3.9-3.9-3.9
		c-4,0-6.8,3.4-9.4,5.7c-3.2,2.8-5.6,5.5-8.6,5.5s-5.4-2.7-8.6-5.5c-2.6-2.3-5.4-5.7-9.4-5.7c-2.1,0-3.9,1.8-3.9,4v8.3
		c0,0.4-0.3,0.8-0.8,0.8H5.8H4.2c-2.3,0-4.2-1.9-4.2-4.2V1.8C0,1.4,0.4,1,0.8,0.9h5.3c1.9,0,3.7,0.8,4.9,2c0.1,0.1,6.6,6.2,6.6,6.2
		c3.1,3.1,7.3,4.8,12,4.8c4.5,0,8.6-1.6,11.6-4.4L50,1.2C50.2,1.1,50.4,1,50.6,1H55C57.3,1,59.2,2.9,59.2,5.2z M151.3,17.5
		c0.4,0,0.6,0.2,0.3,0.8c-0.1,1.6-0.5,3.2-1.1,4.6c-0.6,1.5-1.4,2.7-2.5,3.7c-1,1-2.3,1.8-3.7,2.4c-1.5,0.6-3,0.9-4.7,0.9
		c-2.1,0-4.1-0.5-6.1-1.4c-1.9-0.9-3.7-2.1-5.2-3.6c-1.5-1.6-2.7-3.3-3.6-5.3c-0.9-2-1.3-4.1-1.3-6.3V1.8c0-0.5,0.3-0.8,0.7-0.8
		h11.5c2.1,0,4,0.4,5.9,1.2s3.6,2,5.2,3.4c0.2,0.2,0.3,0.4,0.4,0.5c0,0.2,0,0.3-0.2,0.5L144,9.5c-0.7,0.7-1.4,1.1-2.1,1.1
		c-0.7,0-1.3-0.3-1.9-0.7c-1.4-1.1-2.8-1.6-4.3-1.6c-1.3,0-2.4,0.4-3.2,1.3c-0.9,0.9-1.3,2-1.3,3.4c0,1.1,0.3,2.2,0.8,3.3
		s1.2,2.1,2,3c0.8,0.9,1.8,1.6,2.8,2.2s2,0.9,3,0.9c1.1,0,1.9-0.3,2.6-0.8c0.7-0.5,1.2-1.2,1.5-2.1c0.5-1.3,1.5-2,3.1-2H151.3z"/>
</g>
</svg>
