<?xml version="1.0" encoding="UTF-8" standalone="no"?>
<svg
   viewBox="0 0 98.83589 88.337264"
   version="1.1"
   id="svg3802"
   sodipodi:docname="University_of_Sussex_Logo.svg"
   width="98.835892"
   height="88.337265"
   inkscape:export-filename="University_of_Sussex_Logo.svg"
   inkscape:export-xdpi="96"
   inkscape:export-ydpi="96"
   xmlns:inkscape="http://www.inkscape.org/namespaces/inkscape"
   xmlns:sodipodi="http://sodipodi.sourceforge.net/DTD/sodipodi-0.dtd"
   xmlns="http://www.w3.org/2000/svg"
   xmlns:svg="http://www.w3.org/2000/svg">
  <defs
     id="defs3806" />
  <sodipodi:namedview
     id="namedview3804"
     pagecolor="#ffffff"
     bordercolor="#999999"
     borderopacity="1"
     inkscape:showpageshadow="0"
     inkscape:pageopacity="0"
     inkscape:pagecheckerboard="0"
     inkscape:deskcolor="#d1d1d1"
     showgrid="false" />
  <rect
     style="fill:#ffffff;stroke-width:18.8976;stroke-linecap:round"
     id="rect3925"
     width="98.835892"
     height="88.337265"
     x="0"
     y="0"
     inkscape:export-filename="../e96f7880/sussex.svg"
     inkscape:export-xdpi="96"
     inkscape:export-ydpi="96" />
  <g
     fill="#003b49"
     id="g3786"
     transform="translate(-8.0245151,-12.328887)">
    <path
       d="m 16.6,78.6 c 0,1.1 0,2.4 -1.4,3.2 -0.8,0.5 -1.8,0.5 -2.1,0.5 -0.6,0 -2,-0.1 -2.7,-1 C 9.6,80.4 9.6,79.5 9.6,78.7 v -6.6 h 1.9 v 6.5 c 0,0.6 0.1,1.3 0.4,1.6 0.3,0.3 0.9,0.5 1.4,0.5 0.6,0 1.2,-0.2 1.5,-0.6 0.3,-0.4 0.3,-1.1 0.3,-1.5 v -6.5 h 1.5 z m 11.5,3.6 H 26.4 L 22.5,75.8 C 22.4,75.6 22,74.9 21.9,74.7 v 7.6 H 20.4 V 72.1 h 2 l 3.5,5.9 c 0,0.1 0.3,0.5 0.6,1.2 V 72.1 H 28 v 10.1 z"
       id="path3784" />
  </g>
  <path
     fill="#003b49"
     d="m 24.575485,59.771113 h 1.8 v 10.1 h -1.8 z m 8.3,10.1 -3.1,-10.1 h 2 l 2.3,7.8 2.3,-7.8 h 1.5 l -3.1,10.1 z m 8.4,0 v -10.1 h 6.5 v 1.5 h -4.7 v 2.8 h 3.8 v 1.4 h -3.8 v 2.9 h 4.8 v 1.5 z"
     id="path3788" />
  <g
     fill="#003b49"
     id="g3792"
     transform="translate(-8.0245151,-12.328887)">
    <path
       d="M 65.6,82.2 64,78.1 h -2.6 v 4.1 H 59.6 V 72.1 H 64 c 1.3,0 2,0.2 2.6,0.8 0.5,0.5 0.9,1.1 0.9,2.2 0,1.9 -1.3,2.4 -1.8,2.7 l 1.8,4.4 z m -4.1,-5.6 h 2.3 c 0.9,0 1.9,-0.3 1.9,-1.6 0,-0.8 -0.5,-1.5 -1.8,-1.5 H 61.5 Z M 72,79.4 c 0.1,0.4 0.3,1 1.2,1.3 0.5,0.2 0.9,0.2 1.3,0.2 1.7,0 2,-0.9 2,-1.3 0,-1 -0.8,-1.2 -1.2,-1.3 L 73,77.7 c -1.5,-0.4 -2.2,-1.4 -2.2,-2.7 0,-1.9 1.5,-3 3.6,-3 1,0 2,0.3 2.8,0.9 0.6,0.5 0.8,1 0.8,1.3 l -1.7,0.4 c -0.1,-0.3 -0.4,-1.1 -1.9,-1.1 -1.4,0 -1.7,0.7 -1.7,1.3 0,0.8 0.9,1.1 1.4,1.2 l 1.7,0.4 c 0.9,0.2 2.6,0.7 2.6,2.9 0,2 -1.7,3.2 -4,3.2 -1.2,0 -2.3,-0.3 -3.1,-1 -0.7,-0.5 -0.9,-1.2 -1,-1.6 z"
       id="path3790" />
  </g>
  <path
     fill="#003b49"
     d="m 74.075485,59.771113 h 1.8 v 10.1 h -1.8 z m 7.9,10.1 v -8.5 h -2.7 v -1.6 h 7.3 v 1.6 h -2.6 v 8.5 z m 10.5,0 v -4.2 l -3.4,-5.9 h 2.2 l 2.4,4.2 2.299999,-4.2 h 1.7 l -3.2,5.9 v 4.2 z m -82.4999997,16.7 c -3.2,0 -4.2,-2.9 -4.2,-5.2 0,-2.7 1.5,-5.2 4.2999997,-5.2 2.8,0 4.2,2.5 4.2,5.2 0,3 -1.6,5.2 -4.2999997,5.2 m 1.8999997,-7.9 c -0.5,-1 -1.4,-1.1 -1.8,-1.1 -1.8999997,0 -2.2999997,1.9 -2.2999997,3.7 0,1.2 0.2,3.7 2.2999997,3.7 0.9,0 1.6,-0.6 1.9,-1.2 0.2,-0.5 0.5,-1.1 0.5,-2.6 -0.1,-0.3 -0.1,-1.5 -0.6,-2.5 m 5.5,7.7 v -10.1 h 6.3 v 1.6 h -4.5 v 2.7 h 3.6 v 1.6 h -3.6 v 4.2 z"
     id="path3794" />
  <g
     fill="#003b49"
     id="g3798"
     transform="translate(-8.0245151,-12.328887)">
    <path
       d="m 40.1,95.9 c 0.1,0.4 0.3,1 1.2,1.3 0.5,0.2 0.9,0.2 1.3,0.2 1.7,0 2,-0.9 2,-1.3 0,-1 -0.8,-1.2 -1.2,-1.3 l -2.3,-0.6 c -1.5,-0.4 -2.2,-1.4 -2.2,-2.7 0,-1.9 1.5,-3 3.6,-3 1,0 2,0.3 2.8,0.9 0.6,0.5 0.8,1 0.8,1.3 l -1.7,0.4 C 44.3,90.8 44,90 42.5,90 c -1.4,0 -1.7,0.7 -1.7,1.3 0,0.8 0.9,1.1 1.4,1.2 l 1.7,0.4 c 0.9,0.2 2.6,0.7 2.6,2.9 0,2 -1.7,3.2 -4,3.2 -1.2,0 -2.3,-0.3 -3.1,-1 -0.7,-0.5 -0.9,-1.2 -1,-1.6 z m 16.7,-0.8 c 0,1.1 0,2.4 -1.4,3.2 -0.8,0.5 -1.8,0.5 -2.1,0.5 -0.6,0 -2,-0.1 -2.7,-1 -0.8,-0.9 -0.8,-1.8 -0.8,-2.6 v -6.6 h 1.9 v 6.5 c 0,0.6 0.1,1.3 0.4,1.6 0.3,0.3 0.9,0.5 1.4,0.5 0.6,0 1.2,-0.2 1.5,-0.6 0.3,-0.4 0.3,-1.1 0.3,-1.5 v -6.5 h 1.5 z m 4.3,0.8 c 0.1,0.4 0.3,1 1.2,1.3 0.5,0.2 0.9,0.2 1.3,0.2 1.7,0 2,-0.9 2,-1.3 0,-1 -0.8,-1.2 -1.2,-1.3 L 62,94.2 c -1.5,-0.4 -2.2,-1.4 -2.2,-2.7 0,-1.9 1.5,-3 3.6,-3 1,0 2,0.3 2.8,0.9 0.6,0.5 0.8,1 0.8,1.3 l -1.7,0.4 C 65.2,90.8 64.9,90 63.4,90 c -1.4,0 -1.7,0.7 -1.7,1.3 0,0.8 0.9,1.1 1.4,1.2 l 1.7,0.4 c 0.9,0.2 2.6,0.7 2.6,2.9 0,2 -1.7,3.2 -4,3.2 -1.2,0 -2.3,-0.3 -3.1,-1 -0.7,-0.5 -0.9,-1.2 -1,-1.6 z m 10.3,0 c 0.1,0.4 0.3,1 1.2,1.3 0.5,0.2 0.9,0.2 1.3,0.2 1.7,0 2,-0.9 2,-1.3 0,-1 -0.8,-1.2 -1.2,-1.3 l -2.3,-0.6 c -1.5,-0.4 -2.2,-1.4 -2.2,-2.7 0,-1.9 1.5,-3 3.6,-3 1,0 2,0.3 2.8,0.9 0.6,0.5 0.8,1 0.8,1.3 l -1.7,0.4 C 75.6,90.8 75.3,90 73.8,90 c -1.4,0 -1.7,0.7 -1.7,1.3 0,0.8 0.9,1.1 1.4,1.2 l 1.7,0.4 c 0.9,0.2 2.6,0.7 2.6,2.9 0,2 -1.7,3.2 -4,3.2 -1.2,0 -2.3,-0.3 -3.1,-1 -0.7,-0.5 -0.9,-1.2 -1,-1.6 z"
       id="path3796" />
  </g>
  <path
     fill="#003b49"
     d="m 72.975485,86.371113 v -10.1 h 6.5 v 1.5 h -4.7 v 2.8 h 3.8 v 1.4 h -3.8 v 2.8 h 4.8 v 1.6 z m 15.7,0 -2.3,-4 -2.3,4 h -1.7 l 3.2,-5.3 -2.8,-4.8 h 2.1 l 1.9,3.4 2,-3.4 h 1.7 l -2.8,4.6 3.1,5.5 z m -74.2,-56.9 c 0,10.7 4.7,16.7 15,16.7 7.4,0 13.2,-4.3 15.9,-11 0,-0.1 0.1,-0.1 0.1,-0.1 v 0.1 c 3.5,6.8 10.8,11 20.9,11 10.7,0 19.2,-5.5 19.2,-13.7 0,-5.9 -3.7,-9.5 -11.2,-12.9 -1.1,-0.5 -3.4,-1.6 -4.4,-2.1 -3.9,-1.9 -6.2,-3.6 -6.2,-7.1 0,-3.7000004 3.3,-6.2000004 7.7,-6.2000004 6.9,0 9.6,5.1 11.5,10.7000004 h 1.7 l -0.9,-12.2000005 h -1.3 l -0.2,0.2 c -0.9,1.1000001 -2,1.1000001 -3.8,0.5 -2.1,-0.7 -4.5,-1.3 -7.2,-1.3 -8.3,0 -14.5,5.2000001 -14.5,11.8000005 0,5.6 3.3,9.2 9.8,12.1 0.9,0.4 3.1,1.5 4.3,2 3.8,1.8 6.9,3.6 6.9,7.7 0,5.3 -5.4,8.2 -11.3,8.2 -9.4,0 -14.7,-6.1 -14.7,-16.5 V 3.2711125 h -16.4 v 1.7000001 h 0.5 c 6.3,0.6 7.1,1.7 7.1,8.2000004 v 14.1 c 0,10 -4.1,15.9 -10.9,15.9 -6.2,0 -8.5,-4.8 -8.5,-13.1 V 3.2711125 H 7.3754853 v 1.7000001 h 0.4 c 5.8999997,0.6 6.7999997,1.3 6.7999997,8.0000004 v 16.5 z"
     id="path3800" />
</svg>
