<?xml version="1.0" encoding="UTF-8" standalone="no"?>
<!-- Created with Inkscape (http://www.inkscape.org/) -->

<svg
   version="1.1"
   id="svg148"
   width="207.70358"
   height="84.05307"
   viewBox="0 0 207.70358 84.053069"
   sodipodi:docname="iame.png"
   xml:space="preserve"
   xmlns:inkscape="http://www.inkscape.org/namespaces/inkscape"
   xmlns:sodipodi="http://sodipodi.sourceforge.net/DTD/sodipodi-0.dtd"
   xmlns="http://www.w3.org/2000/svg"
   xmlns:svg="http://www.w3.org/2000/svg"><defs
     id="defs152" /><sodipodi:namedview
     id="namedview150"
     pagecolor="#ffffff"
     bordercolor="#999999"
     borderopacity="1"
     inkscape:showpageshadow="0"
     inkscape:pageopacity="0"
     inkscape:pagecheckerboard="0"
     inkscape:deskcolor="#d1d1d1"
     showgrid="false" /><g
     inkscape:groupmode="layer"
     inkscape:label="Image"
     id="g154"
     transform="translate(-40.355144,-35.641785)"><g
       id="g2588"
       transform="translate(-7.2227778,-222.02121)"><rect
         style="fill:#ffffff;stroke:none;stroke-width:18.8976;stroke-linecap:round"
         id="rect3437"
         width="207.70358"
         height="84.05307"
         x="47.577923"
         y="257.66299" /><path
         style="fill:#b3c8e9;stroke-width:1.33333"
         d="m -131.70748,332.942 c 0,-1.72748 -4.85994,-2.00248 -35.66666,-2.0182 -19.61667,-0.01 -37.98667,0.0146 -39.56879,-0.40983 -1.98567,-0.53269 -3.16592,-4.09241 -6.09651,-10.64654 -3.90803,-8.74012 -4.20925,-10.4172 -3.79008,-21.10064 0.25045,-6.38323 -0.92222,-11.69296 -0.40637,-12.2079 41.40129,3.9557 -7.58532,-44.73269 47.70328,11.39816 4.73092,4.80297 -7.63416,25.257 -3.84153,25.37677 0.91666,0.0289 1.66666,0.61682 1.66666,1.30639 0,0.68957 0.9,0.9084 2,0.48629 1.1,-0.42211 2,-0.15089 2,0.6027 0,0.7536 0.6,0.99936 1.33334,0.54614 0.73333,-0.45323 1.33333,-0.31561 1.33333,0.30583 0,1.74801 18.918,2.03806 23.37136,0.35833 3.90579,-1.4732 10.31992,-8.54242 10.31992,-10.41422 0,-1.17308 -6.64867,-7.33278 -20.5369,-1.52493 -11.84735,-0.0316 -13.26475,-2.66272 -15.82403,-9.86789 14.71826,-1.41446 26.08081,-0.55152 42.00298,-0.19046 l 0.4121,-3.56504 c 1.10326,-9.54447 -5.96324,-21.44446 -15.67698,-26.40003 -12.59762,-3.25287 -12.8983,-4.22261 -28.93371,1.08342 -3.08421,1.38084 -26.70981,25.86201 -26.70981,25.36097 0,-0.50105 -16.02075,-16.9214 -17.89102,-14.16905 -8.9728,4.72238 5.4832,-15.43908 6.79942,-16.31027 1.16677,-0.75403 17.41471,-1.301 39,-1.31291 l 37,-0.0204 0.048,-3 c 0.0456,-2.8557 0.2096,-2.8076 3.40858,1 14.58008,17.35404 15.82799,41.22233 3.19657,61.14 -3.94188,6.21561 -6.65315,7.92448 -6.65315,4.19333 z"
         id="path2608"
         sodipodi:nodetypes="ssssscccssssssscccsccsccsccssss"
         inkscape:export-filename="../a1665a08/iame.svg"
         inkscape:export-xdpi="96"
         inkscape:export-ydpi="96" /><path
         style="fill:#bac2d2;stroke-width:1.33333"
         d="m -131.70748,343.87534 c 0,-5.19501 0.57026,-8.93334 1.3627,-8.93334 2.02662,0 8.9042,-11.44162 11.40698,-18.97682 5.55313,-16.71885 2.40869,-33.44945 -9.0153,-47.96782 -3.44323,-4.37589 -3.84458,-5.83284 -3.48923,-12.66666 l 0.40152,-7.72203 15.77206,24.48301 c 8.67462,13.46566 16.010781,25.72272 16.302581,27.23792 0.31531,1.63726 -1.694931,6.27871 -4.955051,11.44076 -10.27392,16.26759 -25.44054,39.50135 -26.61508,40.77164 -0.68218,0.7378 -1.17118,-2.46321 -1.17118,-7.66666 z m -87.69969,-34.49029 c 0.21842,-12.85243 0.90474,-21.73616 1.69969,-22.00075 0.84387,-0.28088 1.16616,3.85717 0.87796,11.27229 -0.42045,10.81774 -0.128,12.44822 3.81417,21.26472 2.34824,5.25175 5.25316,9.81025 6.45538,10.13 1.2022,0.31974 -1.27904,0.65096 -5.51387,0.73602 l -7.69969,0.15467 z"
         id="path2606" /><path
         style="fill:#a2b9de;stroke-width:1.33333"
         d="m -184.73583,318.2651 c -4.82381,-4.8986 -5.41885,-6.53192 -5.41885,-15.2171 0,-4.98183 0.76335,-11.131 0.33495,-13.606 -0.53515,-3.09161 -0.3754,-3.92855 0.51041,-2.67413 4.23038,-5.75101 8.15648,-9.64119 22.35159,-13.80607 15.97075,-3.28199 21.47701,-1.45134 30.21002,2.42061 13.18816,5.84724 11.86665,22.40986 11.80599,28.06489 -0.0561,9.81095 -1.08305,19.61112 -8.73399,22.50066 -15.94238,6.07837 -41.20057,2.11573 -51.06012,-7.68286 z"
         id="path2604"
         sodipodi:nodetypes="cssccsccc" /><path
         style="fill:#75abfd;stroke-width:1.33333"
         d="m -362.95737,363.41775 c -0.51339,-2.82833 -1.83357,-9.16295 -2.93375,-14.07692 l -2.00032,-8.93451 -12.57469,-6.77883 c -6.91608,-3.72836 -12.57469,-6.98285 -12.57469,-7.23222 0,-0.24936 2.68035,-6.22836 5.95633,-13.28666 l 5.95633,-12.83328 c 49.239,-0.64117 64.21311,-14.55052 73.4223,3.16861 1.1674,7.3005 0.30967,-7.39732 -2.34464,-0.57666 l -9.90082,25.44164 -6.12424,18.47503 -4.9513,18.72253 -10.91022,0.57562 c -5.36714,0.28317 -12.06594,1.19546 -14.91207,1.65057 l -5.17479,0.82749 z"
         id="path2602"
         sodipodi:nodetypes="sscsssccscccsscs" /><path
         style="fill:#bd72bc;stroke-width:1.33333"
         d="m -387.45078,288.20558 c -6.11748,-13.20858 -6.37901,-14.19731 -3.92337,-14.83248 0.91666,-0.2371 6.56108,-3.12565 12.54315,-6.41898 l 10.87649,-5.98788 2.24367,-10.01212 c 3.9623,-17.68128 3.28008,-16.6975 11.47243,-16.54338 3.95868,0.0745 10.60785,0.56268 14.77594,1.08491 l 7.57835,0.9495 6.01238,17.98608 c 5.36205,16.04062 13.66997,17.62538 11.65674,18.33247 16.41027,-26.27734 4.47769,19.72377 2.63802,29.86128 -52.97417,-2.04545 -29.57476,-1.13209 -60.54046,-2.34965 h -9.74329 z"
         id="path2600"
         sodipodi:nodetypes="ssscscscsccccs" /><path
         style="fill:#fc9c3a;stroke-width:1.33333"
         d="m -268.68586,329.88301 -14.97838,-10.27434 -29.43696,-16.85916 9.69026,-20.10374 25.00825,-4.19325 c 13.24616,-37.7787 51.17809,0.2607 62.42229,4.65373 0,0 -4.05738,31.18981 -3.51465,39.4465 l -12.8988,7.19365 c -2.88605,1.60954 -8.38663,4.54242 -12.14256,6.66667 -3.75594,2.12424 -7.35594,3.83572 -8,3.80327 -0.64407,-0.0324 -7.9113,-4.68244 -16.14941,-10.33333 z m 16.15898,-69.08778 12.40025,6.74005 c 6.82014,3.70703 20.67115,13.32482 20.67635,14.2307 -10.53997,-4.73163 -37.45133,48.44675 -46.73582,48.14161 -17.07883,-0.56129 -10.45187,-53.1044 13.65922,-69.11236 z"
         id="path2598"
         sodipodi:nodetypes="cccccscsscsccscsc" /><path
         style="fill:#f56767;stroke-width:1.33333"
         d="m -313.63112,302.48519 c 0.63201,-1.14118 -4.40489,-20.61698 -6.53309,-30.87652 l -5.96661,-17.91824 -5.9666,-17.91824 5.19497,-4.48138 c 2.85723,-2.46476 7.727,-6.6091 10.8217,-9.20965 l 5.62673,-4.72828 3.87763,3.1279 c 2.1327,1.72034 7.14828,5.96329 11.14573,9.42879 l 7.26808,6.30089 11.22755,-1.29078 c 19.28588,-2.2172 14.45501,-4.16574 17.80129,6.70508 5.72397,18.59508 3.93784,15.54089 6.85618,18.96333 -12.52943,9.97321 -13.04963,11.93607 -24.48299,18.07729 -7.26226,3.90079 -22.22784,6.23896 -36.87057,23.81981 z"
         id="path2596"
         sodipodi:nodetypes="ccccsscsscsscsc" /><path
         style="fill:#57fd57;stroke-width:1.33333"
         d="m -321.04082,375.31039 c -5.5,-4.85693 -10.16065,-9.47676 -10.35701,-10.26627 -0.19636,-0.78949 2.2538,-9.23545 5.44478,-18.76878 l 5.8018,-17.33334 7.68254,-26.69269 c 21.45612,11.64635 19.87323,10.98663 31.30844,17.81978 0.34806,0 5.36696,4.7719 13.49287,10.35214 l 14.77439,10.14589 -0.81296,4.18744 c -0.44712,2.3031 -1.80607,8.60528 -3.0199,14.00486 l -2.20693,9.81741 -6.72068,-0.75167 c -3.69637,-0.41342 -10.32067,-1.13633 -14.72067,-1.60646 l -8,-0.85479 -10.84698,9.45571 c -5.96584,5.20065 -11.06584,9.42553 -11.33333,9.38865 -0.2675,-0.0369 -4.98636,-4.04093 -10.48636,-8.89788 z"
         id="path2594"
         sodipodi:nodetypes="ssscccscsscsscsss" /><path
         style="fill:#fd0303;stroke-width:1.33333"
         d="m -359.37415,263.57263 c -1.88811,-1.33122 -3,-3.49309 -3,-5.83292 0,-8.34032 10.91689,-11.09014 14.46958,-3.64469 1.6269,3.40954 1.54201,4.19695 -0.79059,7.33333 -3.17061,4.26314 -6.67558,4.96692 -10.67899,2.14428 z"
         id="path2592" /><path
         style="fill:#0d223c;stroke-width:1.33333"
         d="m -358.6579,305.60747 -0.38292,-29.33454 5,0.001 5,10e-4 v 29.33334 29.33333 h -4.61708 -4.61709 z m 23.03931,-5.33214 c -0.73115,-15.56343 7.14496,-24.32643 22.13485,-25.53241 5.516,-0.49026 17.57328,7.81095 17.77626,3.53238 0,-1.39682 1.40741,-2 4.66666,-2 h 4.66667 v 24 24.00001 h -4.51116 c -3.54575,0 -4.6871,-0.64202 -5.3333,-3 -0.49455,-1.80462 -1.22061,-2.44104 -1.82217,-1.5972 -18.87034,12.77492 -37.33782,2.23934 -37.57781,-19.40278 z m 37.0881,-11.52171 c -4.75989,-5.73531 -15.15976,-6.94423 -21.57019,-2.50739 -5.05365,2.73335 -6.25145,9.62894 -6.27347,14.0291 -0.11629,5.45862 1.72737,10.61832 5.45986,13.70289 2.96592,2.32118 5.82637,3.2495 10.01278,3.2495 13.68069,1.70952 17.66039,-21.29091 12.37102,-28.4741 z m 34.48968,35.88376 -5,-0.52302 v -23.77947 -23.77946 l 5.12536,-0.48878 c 4.2378,-0.40414 5.02582,-0.10811 4.55052,1.70947 -0.98207,3.75539 1.66549,3.85946 6.94352,0.27295 6.63224,-4.50672 13.91777,-4.67233 19.72484,-0.44836 2.37733,1.72923 4.85209,4.02752 5.49945,5.10729 0.95652,1.59542 1.89328,1.14288 5,-2.41539 5.57102,-7.11572 20.64901,-4.62728 24.80814,-0.97151 4.59176,4.59177 4.9519,6.93311 4.58588,29.81419 l -0.23771,14.85995 -5,0.47726 -5,0.47725 0.25702,-16.55097 c 0.19187,-12.35453 -0.2394,-17.51097 -1.7009,-20.33721 -1.07687,-2.08243 -2.39252,-3.85402 -2.9237,-3.93688 -6.98041,-1.08883 -9.97133,-0.50772 -13.30941,2.58591 -2.01099,1.86372 -3.65635,3.82822 -3.65635,4.36555 0,0.53733 -0.45,1.42696 -1,1.97696 -0.55,0.55 -1,7.8 -1,16.11111 v 15.11112 h -5.50112 -5.5011 l 0.62289,-15.66667 c 0.84435,-21.23687 -0.40523,-24.2943 -10.19959,-24.95611 -2.73454,-0.18477 -5.13077,0.90012 -7.96,3.60388 l -4.04773,3.86824 -0.04,17.23654 c -0.022,9.4801 -0.04,17.13814 -0.04,17.01786 0,-0.12028 -2.25,-0.45404 -5,-0.7417 z m 100.33333,-0.52302 c -4.20685,-1.67256 -10.35805,-7.45971 -12.708,-11.95588 -2.39945,-4.59091 -2.81048,-18.437 -0.67036,-22.58226 4.61594,-8.9407 13.6388,-14.87376 23.11919,-15.20219 7.0004,-0.24252 17.36432,4.59096 20.53772,9.57828 1.27959,2.011 2.64039,3.95636 3.02399,4.32302 0.78394,0.74933 1.28962,2.70238 2.3303,9 l 0.71607,4.33334 h -20.01119 c -13.05989,1.63806 -25.49206,-4.37106 -22.08841,8.05298 1.76225,8.62981 19.22182,9.11673 25.35277,6.16151 3.47247,-1.80277 4.90903,-1.92444 7.7012,-0.65225 4.4839,2.043 3.76895,3.65575 -3.27104,7.37858 -6.24458,3.30222 -17.77416,4.05297 -24.03224,1.56487 z m 25.78284,-29.75393 c 0.94779,-2.46986 -3.61068,-8.24951 -8.50102,-10.7784 -9.24998,-4.29845 -23.4902,4.52142 -22.17294,10.58919 1.13772,2.96484 29.54163,3.14005 30.67396,0.18921 z"
         id="path2590"
         sodipodi:nodetypes="ccccccccccccscccssccccccccccccscsssccscccsscsssscccssscssscsssssssccccssssccs" /><g
         id="g3435"
         transform="matrix(0.18599237,0,0,0.18599237,50.14378,259.90242)"><path
           d="M 937.6,147.1 C 854.87,211.34 709.8,288.8 531.8,361.9 l 6.142,-0.022 c 173.9,-70.57 317.5,-145.6 404.3,-209.2 -1.96,-1.489 -3.561,-3.393 -4.714,-5.588 z m 92.87,-111.3 c -21.52,-60.46 -236.4,-41.82 -515.7,37.08 269.9,-74.35 475.4,-90.77 496.4,-31.72 7.676,21.58 -10.14,50.92 -48.3,84.96 2.223,1.764 4.031,4.026 5.146,6.68 47.79,-39.17 70.98,-72.91 62.42,-96.99"
           style="fill:#00a3c9"
           id="path3303" /><path
           d="M 44.62,145.2 H 0 V 129.09 H 108.6 V 145.2 H 63.75 V 275.8 H 44.6 V 145.2"
           style="fill:#242a75"
           id="path3305" /><path
           d="m 116.3,121.2 h 19.15 v 65.75 h 0.4367 c 3.052,-5.442 7.844,-10.45 13.71,-13.5 5.66,-3.482 12.41,-5.442 19.59,-5.442 14.15,0 36.79,8.706 36.79,45.06 v 62.7 h -19.15 v -60.52 c 0,-17.2 -6.321,-31.35 -24.39,-31.35 -12.4,0 -21.98,8.706 -25.68,19.16 -1.092,2.609 -1.31,5.437 -1.31,9.143 v 63.56 h -19.15 v -154.6"
           style="fill:#242a75"
           id="path3307" /><path
           d="m 286.1,222 c -20.9,-0.4309 -44.62,3.264 -44.62,23.72 0,12.63 8.27,18.29 17.85,18.29 13.93,0 22.85,-8.7 25.9,-17.63 0.6553,-1.954 0.8735,-4.132 0.8735,-6.097 v -18.29 z m 18.72,28.52 c 0,9.143 0.4475,18.07 1.528,25.26 h -17.19 l -1.747,-13.28 h -0.6499 c -5.66,8.269 -17.19,15.67 -32.22,15.67 -21.33,0 -32.22,-15.02 -32.22,-30.26 0,-25.47 22.64,-39.4 63.35,-39.18 v -2.184 c 0,-8.706 -2.402,-24.59 -23.95,-24.38 -10.01,0 -20.24,2.828 -27.64,7.833 l -4.356,-12.84 c 8.706,-5.442 21.56,-9.137 34.83,-9.137 32.43,0 40.27,21.98 40.27,43.1 v 39.4"
           style="fill:#242a75"
           id="path3309" /><path
           d="M 348.1,275.8 V 121.2 h -19.15 v 154.6 z"
           style="fill:#242a75"
           id="path3311" /><path
           d="m 440.2,212.7 c 0.2293,-11.97 -4.994,-31.12 -26.34,-31.12 -19.59,0 -27.85,17.85 -29.38,31.12 h 55.71 z m -55.94,13.71 c 0.4313,25.91 16.76,36.58 35.92,36.58 13.72,0 22.2,-2.402 29.18,-5.229 l 3.477,13.5 c -6.752,3.046 -18.51,6.753 -35.27,6.753 -32.22,0 -51.81,-21.56 -51.81,-53.12 0,-32 18.94,-57.03 49.63,-57.03 34.4,0 43.32,30.26 43.32,49.63 0,3.914 -0.2186,6.965 -0.6553,9.143 l -73.79,-0.224"
           style="fill:#242a75"
           id="path3313" /><path
           d="m 473.3,256.4 c 5.879,3.477 15.89,7.402 25.47,7.402 13.71,0 20.24,-6.747 20.24,-15.67 0,-9.143 -5.442,-14.15 -19.37,-19.37 -19.16,-6.97 -28.08,-17.2 -28.08,-29.83 0,-16.97 13.93,-30.91 36.35,-30.91 10.67,0 20.03,2.828 25.69,6.534 l -4.574,13.71 c -4.132,-2.396 -11.75,-6.097 -21.56,-6.097 -11.32,0 -17.41,6.534 -17.41,14.37 0,8.924 6.092,12.84 19.81,18.07 18.07,6.741 27.65,15.89 27.65,31.78 0,18.72 -14.59,31.78 -39.19,31.78 -11.54,0 -22.2,-3.04 -29.6,-7.402 l 4.563,-14.37"
           style="fill:#242a75"
           id="path3315" /><path
           d="m 628,214.8 -14.59,-42.23 c -3.046,-9.574 -5.218,-18.29 -7.396,-26.77 h -0.6495 c -1.96,8.488 -4.362,17.63 -7.195,26.55 l -14.36,42.45 h 44.19 z m -48.11,14.8 -15.24,46.15 h -19.59 l 49.85,-146.7 h 22.85 l 50.06,146.7 H 647.57 L 631.9,229.6 h -52.03"
           style="fill:#242a75"
           id="path3317" /><path
           d="M 700.8,275.8 V 121.2 h -19.15 v 154.6 z"
           style="fill:#242a75"
           id="path3319" /><path
           d="m 792.8,212.7 c 0.224,-11.97 -4.994,-31.12 -26.34,-31.12 -19.58,0 -27.86,17.85 -29.38,31.12 z m -55.94,13.71 c 0.4313,25.91 16.76,36.58 35.92,36.58 13.72,0 22.21,-2.402 29.18,-5.229 l 3.477,13.5 c -6.747,3.046 -18.5,6.753 -35.27,6.753 -32.22,0 -51.81,-21.56 -51.81,-53.12 0,-32 18.94,-57.03 49.64,-57.03 34.4,0 43.32,30.26 43.32,49.63 0,3.914 -0.2186,6.965 -0.6553,9.143 l -73.79,-0.224"
           style="fill:#242a75"
           id="path3321" /><path
           d="m 828.5,198.9 c 0,-11.1 -0.2128,-19.81 -0.868,-28.52 h 16.98 l 1.086,17.2 h 0.4371 c 5.229,-9.798 17.42,-19.59 34.82,-19.59 14.59,0 37.23,8.706 37.23,44.84 v 62.92 h -19.15 v -60.74 c 0,-16.98 -6.321,-31.35 -24.38,-31.35 -12.41,0 -22.2,8.924 -25.69,19.6 -0.8676,2.39 -1.304,5.873 -1.304,8.925 v 63.56 h -19.16 v -76.85"
           style="fill:#242a75"
           id="path3323" /><path
           d="M 942.8,275.8 V 170.4 h 19.15 v 105.4 z m 9.143,-124.7 c -7.183,0 -11.98,-5.655 -11.98,-12.41 0,-6.741 5.011,-12.19 12.41,-12.19 7.402,0 12.19,5.447 12.19,12.19 0,6.758 -4.787,12.41 -12.4,12.41 h -0.2186"
           style="fill:#242a75"
           id="path3325" /><path
           d="m 1043,222 c -20.9,-0.4309 -44.63,3.264 -44.63,23.72 0,12.63 8.269,18.29 17.85,18.29 13.93,0 22.86,-8.7 25.9,-17.63 0.6494,-1.954 0.8734,-4.132 0.8734,-6.097 v -18.29 z m 18.72,28.52 c 0,9.143 0.4309,18.07 1.523,25.26 h -17.2 l -1.741,-13.28 h -0.6552 c -5.655,8.269 -17.19,15.67 -32.22,15.67 -21.33,0 -32.22,-15.02 -32.22,-30.26 0,-25.47 22.65,-39.4 63.35,-39.18 v -2.184 c 0,-8.706 -2.396,-24.59 -23.95,-24.38 -10.02,0 -20.25,2.828 -27.65,7.833 l -4.35,-12.84 c 8.7,-5.442 21.54,-9.137 34.82,-9.137 32.43,0 40.28,21.98 40.28,43.1 v 39.4"
           style="fill:#242a75"
           id="path3327" /><path
           d="m 698.3,383.4 c 5.559,3.852 13.42,6.634 22.06,6.634 11.72,0 22.51,-6.937 22.51,-19.43 0,-7.867 -4.322,-13.57 -15.27,-19.43 -13.26,-7.245 -20.67,-15.58 -20.67,-26.68 0,-18.66 16.04,-30.53 35.17,-30.53 10.18,0 17.73,2.934 21.28,5.403 l -4.624,10.48 c -3.236,-2.004 -9.714,-5.084 -17.89,-4.933 -12.95,0 -20.66,8.488 -20.66,16.97 0,8.477 5.24,13.26 16.19,19.27 12.8,6.942 19.74,15.12 19.74,27.76 0,18.04 -14.03,32.23 -37.47,32.23 -10.49,-0.1621 -20.67,-3.398 -24.98,-7.256 l 4.625,-10.49"
           style="fill:#00a3c9"
           id="path3329" /><path
           d="m 782.5,386.9 c 3.387,2.62 8.174,4.166 14.34,4.166 16.5,0 30.23,-20.51 30.23,-40.1 0,-7.866 -3.399,-17.27 -14.34,-17.27 -10.03,0 -22.51,11.41 -26.38,32.38 l -3.852,20.82 z m -20.97,43.02 14.95,-78.64 c 1.702,-8.941 3.242,-19.13 4.171,-26.68 h 11.72 l -2.01,14.18 h 0.3136 c 6.629,-9.865 16.5,-15.73 26.83,-15.73 16.04,0 22.82,13.26 22.82,26.99 0,26.37 -18.81,51.05 -43.63,51.05 -7.866,0 -13.1,-1.702 -16.04,-3.398 h -0.3077 l -6.019,32.23 h -12.8"
           style="fill:#00a3c9"
           id="path3331" /><path
           d="m 907.2,334.3 c -1.853,-0.6158 -4.468,-1.086 -8.79,-1.086 -19.28,0 -35.16,20.05 -35.16,40.88 0,8.325 2.928,16.49 12.65,16.49 10.79,0 23.44,-13.87 26.98,-33.77 l 4.322,-22.51 z m -8.174,65.08 c 0,-4.474 0.7785,-11.57 1.697,-19.28 h -0.3082 c -8.174,15.58 -18.51,20.98 -28.99,20.98 -13.26,0 -21.44,-10.49 -21.44,-24.68 0,-26.06 19.13,-53.36 51.51,-53.36 7.094,0 14.96,1.231 20.04,2.777 l -7.553,39.02 c -2.469,12.95 -3.399,26.21 -3.091,34.54 h -11.87"
           style="fill:#00a3c9"
           id="path3333" /><path
           d="m 981.1,396.5 c -3.852,2.004 -11.57,4.636 -21.59,4.636 -19.28,0 -28.68,-12.96 -28.68,-28.85 0,-25.6 18.81,-49.19 45.64,-49.19 6.937,0 13.26,2.01 15.58,3.393 l -3.706,10.03 c -2.928,-1.388 -7.088,-2.777 -12.64,-2.777 -19.43,0 -31.61,19.12 -31.61,36.85 0,12.19 6.321,20.05 18.51,20.05 7.715,0 13.41,-2.318 17.27,-4.166 l 1.237,10.02"
           style="fill:#00a3c9"
           id="path3335" /><path
           d="m 1045,342.5 c 0,-6.008 -4.625,-9.4 -11.42,-9.4 -12.18,0 -21.28,11.87 -24.36,23.59 20.05,0.3135 35.78,-2.464 35.78,-14.03 v -0.1568 z m 2.783,52.74 c -5.566,3.09 -14.65,5.868 -24.68,5.868 -19.74,0 -28.38,-13.58 -28.38,-30.08 0,-22.51 16.65,-47.95 40.71,-47.95 14.19,0 21.9,8.482 21.9,19.28 0,19.58 -22.05,24.67 -49.64,24.2 -0.6159,3.242 -0.1509,10.18 1.54,14.19 2.928,6.786 8.941,10.02 16.65,10.02 8.79,0 15.42,-2.62 20.05,-5.09 l 1.859,9.563"
           style="fill:#00a3c9"
           id="path3337" /><g
           transform="matrix(1.631,0,0,1.631,-91.53,-425.3)"
           style="fill:#232f5d"
           id="g3385"><path
             d="m 83.09,480.3 h -1.81 q 0.4297,-2.174 1.563,-2.917 1.133,-0.7552 3.997,-0.7552 3.112,0 4.023,0.9245 0.9115,0.9115 0.3906,3.49 l -1.641,8.216 h -1.823 l 0.4167,-1.341 -0.03906,-0.013 q -1.354,1.536 -4.544,1.536 -4.714,0 -3.958,-3.789 0.4557,-2.253 1.68,-3.112 1.224,-0.8594 3.984,-0.8594 3.281,0 3.685,1.289 l 0.03906,-0.013 0.2995,-1.51 q 0.4297,-2.135 -0.03906,-2.76 -0.4557,-0.638 -2.435,-0.638 -3.359,0 -3.737,1.888 -0.01302,0.0911 -0.05208,0.3646 z m 2.37,2.799 q -2.096,0 -2.826,0.4427 -0.7161,0.4427 -1.003,1.901 -0.3125,1.51 0.2083,2.005 0.5339,0.4818 2.448,0.4818 3.854,0 4.323,-2.344 0.2995,-1.471 -0.3516,-1.979 -0.638,-0.5078 -2.799,-0.5078 z"
             style="fill:#232f5d"
             id="path3339" /><path
             d="m 109.1,473.3 -3.177,15.91 h -2.005 l 3.177,-15.91 h -5.794 l 0.3776,-1.862 h 13.54 l -0.3776,1.862 z"
             style="fill:#232f5d"
             id="path3341" /><path
             d="m 118.8,471.5 -1.367,6.862 0.026,0.026 q 1.042,-1.745 4.206,-1.745 4.688,0 3.854,4.167 l -0.1042,0.5078 -1.589,7.956 h -1.823 l 1.589,-7.956 0.0781,-0.3516 q 0.5599,-2.812 -2.318,-2.812 -2.318,0 -3.268,0.8333 -0.9505,0.8203 -1.432,3.281 l -1.406,7.005 h -1.823 l 3.555,-17.77 z"
             style="fill:#232f5d"
             id="path3343" /><path
             d="m 130.8,480.3 h -1.81 q 0.4297,-2.174 1.563,-2.917 1.133,-0.7552 3.997,-0.7552 3.112,0 4.023,0.9245 0.9115,0.9115 0.3906,3.49 l -1.641,8.216 h -1.823 l 0.4167,-1.341 -0.0391,-0.013 q -1.354,1.536 -4.544,1.536 -4.714,0 -3.958,-3.789 0.4557,-2.253 1.68,-3.112 1.224,-0.8594 3.984,-0.8594 3.281,0 3.685,1.289 l 0.0391,-0.013 0.2995,-1.51 q 0.4297,-2.135 -0.0391,-2.76 -0.4557,-0.638 -2.435,-0.638 -3.359,0 -3.737,1.888 -0.013,0.0911 -0.0521,0.3646 z m 2.37,2.799 q -2.096,0 -2.826,0.4427 -0.7161,0.4427 -1.003,1.901 -0.3125,1.51 0.2083,2.005 0.5339,0.4818 2.448,0.4818 3.854,0 4.323,-2.344 0.2995,-1.471 -0.3516,-1.979 -0.638,-0.5078 -2.799,-0.5078 z"
             style="fill:#232f5d"
             id="path3345" /><path
             d="m 146.1,471.5 -3.555,17.77 h -1.823 l 3.555,-17.77 z"
             style="fill:#232f5d"
             id="path3347" /><path
             d="m 155.1,485.5 h 1.862 l -0.0781,0.4557 q -0.3906,1.94 -1.732,2.721 -1.328,0.7682 -4.284,0.7682 -3.438,0 -4.258,-1.25 -0.8203,-1.263 -0.013,-5.286 0.7422,-3.724 2.07,-5 1.341,-1.276 4.492,-1.276 3.438,0 4.284,1.107 0.8464,1.107 0.1302,4.661 l -0.1953,0.9766 h -8.958 q -0.5859,2.943 -0.1172,3.75 0.4687,0.807 2.786,0.8073 2.201,0 2.93,-0.3776 0.7422,-0.3906 1.003,-1.667 z m 0.7031,-3.542 0.1042,-0.5859 q 0.4036,-2.018 -0.1432,-2.617 -0.5338,-0.612 -2.734,-0.612 -2.214,0 -3.021,0.7161 -0.7943,0.7031 -1.276,3.099 z"
             style="fill:#232f5d"
             id="path3349" /><path
             d="m 170.6,480.1 h -1.823 q 0.2604,-1.302 -0.2083,-1.615 -0.4557,-0.3125 -2.643,-0.3125 -2.031,0 -2.643,0.3385 -0.612,0.3255 -0.8724,1.589 -0.3776,1.914 1.432,2.005 l 1.458,0.0781 1.849,0.0911 q 3.346,0.1693 2.669,3.542 -0.4167,2.096 -1.693,2.878 -1.2763,0.782 -4.258,0.7812 -3.06,0 -4.062,-0.7422 -1.003,-0.7422 -0.612,-2.721 l 0.1562,-0.6771 h 1.888 l -0.1042,0.5859 q -0.2474,1.224 0.2864,1.641 0.5469,0.4036 2.383,0.4036 2.253,0 3.047,-0.4297 0.8073,-0.4297 1.081,-1.797 0.3906,-1.966 -1.393,-1.966 -4.154,0 -5.326,-0.7031 -1.172,-0.7031 -0.7292,-2.917 0.4297,-2.096 1.602,-2.786 1.172,-0.7031 4.258,-0.7031 4.948,0 4.349,2.982 z"
             style="fill:#232f5d"
             id="path3351" /><path
             d="m 195.7,471.5 -20.25,23.11 h -1.497 l 20.26,-23.11 z"
             style="fill:#232f5d"
             id="path3353" /><path
             d="m 207.9,471.5 -3.177,15.91 h 9.141 l -0.3776,1.862 h -11.15 l 3.555,-17.77 z"
             style="fill:#232f5d"
             id="path3355" /><path
             d="m 224.6,485.5 h 1.862 l -0.0781,0.4557 q -0.3906,1.94 -1.732,2.721 -1.328,0.7682 -4.284,0.7682 -3.438,0 -4.258,-1.25 -0.8203,-1.263 -0.013,-5.286 0.7422,-3.724 2.07,-5 1.341,-1.276 4.492,-1.276 3.438,0 4.284,1.107 0.8464,1.107 0.1302,4.661 l -0.1953,0.9766 h -8.958 q -0.5859,2.943 -0.1172,3.75 0.4687,0.807 2.786,0.8073 2.201,0 2.93,-0.3776 0.7422,-0.3906 1.003,-1.667 z m 0.7031,-3.542 0.1042,-0.5859 q 0.4036,-2.018 -0.1432,-2.617 -0.5339,-0.612 -2.734,-0.612 -2.214,0 -3.021,0.7161 -0.7943,0.7031 -1.276,3.099 z"
             style="fill:#232f5d"
             id="path3357" /><path
             d="m 236.3,476.6 q 3.451,0 4.232,1.198 0.7943,1.198 0,5.208 -0.8073,4.01 -2.083,5.208 -1.263,1.198 -4.714,1.198 -3.438,0 -4.232,-1.198 -0.7812,-1.198 0.026,-5.208 0.7943,-4.01 2.057,-5.208 1.276,-1.198 4.714,-1.198 z m -0.2995,1.51 q -2.422,0 -3.164,0.7943 -0.7292,0.7812 -1.393,4.102 -0.6641,3.32 -0.2474,4.115 0.4167,0.7812 2.839,0.7812 2.435,0 3.177,-0.7812 0.7422,-0.7943 1.406,-4.115 0.6641,-3.32 0.2344,-4.102 -0.4167,-0.7943 -2.852,-0.7943 z"
             style="fill:#232f5d"
             id="path3359" /><path
             d="m 244.6,476.8 h 1.758 l -0.3906,1.693 0.0521,0.0391 q 1.211,-1.914 4.518,-1.914 2.669,0 3.424,0.9375 0.755,0.9375 0.2214,3.594 l -1.615,8.099 h -1.823 l 1.589,-7.943 0.0911,-0.4688 q 0.3255,-1.602 -0.1823,-2.148 -0.4948,-0.5599 -2.24,-0.5599 -3.841,0 -4.57,3.633 l -1.497,7.487 h -1.823 z"
             style="fill:#232f5d"
             id="path3361" /><path
             d="m 259.6,480.3 h -1.81 q 0.4297,-2.174 1.563,-2.917 1.133,-0.7552 3.997,-0.7552 3.112,0 4.023,0.9245 0.9115,0.9115 0.3906,3.49 l -1.641,8.216 h -1.823 l 0.4167,-1.341 -0.0391,-0.013 q -1.354,1.536 -4.544,1.536 -4.714,0 -3.958,-3.789 0.4557,-2.253 1.68,-3.112 1.224,-0.8594 3.984,-0.8594 3.281,0 3.685,1.289 l 0.0391,-0.013 0.2995,-1.51 q 0.4297,-2.135 -0.0391,-2.76 -0.4557,-0.638 -2.435,-0.638 -3.359,0 -3.737,1.888 -0.013,0.0911 -0.0521,0.3646 z m 2.37,2.799 q -2.096,0 -2.826,0.4427 -0.7161,0.4427 -1.003,1.901 -0.3125,1.51 0.2083,2.005 0.5338,0.4818 2.448,0.4818 3.854,0 4.323,-2.344 0.2995,-1.471 -0.3516,-1.979 -0.638,-0.5078 -2.799,-0.5078 z"
             style="fill:#232f5d"
             id="path3363" /><path
             d="m 272.1,476.8 h 1.823 l -0.4688,1.432 0.0391,0.0391 q 1.432,-1.758 3.919,-1.758 3.438,0 2.721,3.542 l -0.1823,0.8594 h -1.797 l 0.1042,-0.3125 q 0.1302,-0.4948 0.1693,-0.6641 0.3776,-1.914 -1.706,-1.914 -3.047,0 -3.789,3.763 l -1.497,7.461 h -1.823 z"
             style="fill:#232f5d"
             id="path3365" /><path
             d="m 294,471.5 -3.555,17.77 h -1.823 l 0.4167,-1.615 -0.0521,-0.013 q -1.224,1.81 -4.362,1.81 -2.865,0 -3.633,-1.393 -0.768,-1.393 -0.013,-5.195 0.7031,-3.503 2.031,-4.857 1.328,-1.367 4.049,-1.367 3.398,0 3.698,1.758 l 0.0391,-0.026 1.38,-6.875 z m -6.81,6.654 q -2.018,0 -2.878,0.9375 -0.8464,0.9245 -1.406,3.763 -0.625,3.125 -0.1693,4.115 0.4557,0.9766 2.526,0.9766 2.253,0 3.125,-0.9766 0.8854,-0.9896 1.536,-4.284 0.5338,-2.669 -0.026,-3.594 -0.5599,-0.9375 -2.708,-0.9375 z"
             style="fill:#232f5d"
             id="path3367" /><path
             d="m 301.4,476.6 q 3.451,0 4.232,1.198 0.7943,1.198 0,5.208 -0.8073,4.01 -2.083,5.208 -1.263,1.198 -4.714,1.198 -3.438,0 -4.232,-1.198 -0.7812,-1.198 0.026,-5.208 0.7943,-4.01 2.057,-5.208 1.276,-1.198 4.714,-1.198 z m -0.2995,1.51 q -2.422,0 -3.164,0.7943 -0.7292,0.7812 -1.393,4.102 -0.6641,3.32 -0.2474,4.115 0.4167,0.7812 2.839,0.7812 2.435,0 3.177,-0.7812 0.7422,-0.7943 1.406,-4.115 0.6641,-3.32 0.2344,-4.102 -0.4167,-0.7943 -2.852,-0.7943 z"
             style="fill:#232f5d"
             id="path3369" /><path
             d="m 323.3,484.8 h 1.823 l -0.1172,0.6771 q -0.8073,3.997 -6.042,3.997 -3.359,0 -4.193,-1.263 -0.8203,-1.263 -0.026,-5.208 0.7292,-3.698 2.096,-5.013 1.367,-1.328 4.453,-1.328 3.034,0 3.958,0.8984 0.9375,0.8854 0.4427,3.346 h -1.823 l 0.0651,-0.3255 q 0.2865,-1.445 -0.3385,-1.927 -0.612,-0.4818 -2.747,-0.4818 -2.057,0 -2.826,0.9114 -0.7682,0.9115 -1.406,4.089 -0.625,3.099 -0.1302,3.945 0.5078,0.8464 2.969,0.8464 2.083,0 2.747,-0.5469 0.6771,-0.5599 1.094,-2.617 z"
             style="fill:#232f5d"
             id="path3371" /><path
             d="m 334.4,476.6 q 3.451,0 4.232,1.198 0.7943,1.198 0,5.208 -0.8073,4.01 -2.083,5.208 -1.263,1.198 -4.714,1.198 -3.438,0 -4.232,-1.198 -0.7812,-1.198 0.026,-5.208 0.7943,-4.01 2.057,-5.208 1.276,-1.198 4.714,-1.198 z m -0.2995,1.51 q -2.422,0 -3.164,0.7943 -0.7292,0.7812 -1.393,4.102 -0.6641,3.32 -0.2474,4.115 0.4167,0.7812 2.839,0.7812 2.435,0 3.177,-0.7812 0.7422,-0.7943 1.406,-4.115 0.6641,-3.32 0.2344,-4.102 -0.4167,-0.7943 -2.852,-0.7943 z"
             style="fill:#232f5d"
             id="path3373" /><path
             d="m 342.7,476.8 h 1.823 l -0.4167,1.875 0.0391,0.0391 q 1.471,-2.096 4.479,-2.096 3.164,0 3.424,2.096 h 0.0521 q 1.589,-2.096 4.701,-2.096 4.401,0 3.503,4.492 l -1.628,8.138 h -1.823 l 1.667,-8.307 q 0.3255,-1.641 -0.1432,-2.227 -0.4688,-0.5859 -2.096,-0.5859 -2.161,0 -3.099,0.8203 -0.9245,0.8073 -1.38,3.099 l -1.445,7.201 h -1.823 l 1.628,-8.138 0.0911,-0.5729 q 0.4818,-2.409 -2.266,-2.409 -3.724,0 -4.531,4.049 l -1.419,7.07 h -1.823 z"
             style="fill:#232f5d"
             id="path3375" /><path
             d="m 364.8,476.8 h 1.823 l -0.4036,1.576 0.0391,0.0391 q 1.315,-1.797 4.453,-1.797 2.773,0 3.529,1.406 0.7682,1.406 0.013,5.182 -0.7031,3.503 -2.031,4.87 -1.328,1.354 -4.023,1.354 -3.073,0 -3.724,-1.654 h -0.0391 l -1.367,6.81 h -1.823 z m 5.104,1.328 q -2.188,0 -3.047,0.9505 -0.8464,0.9375 -1.471,4.049 -0.5729,2.878 -0.0521,3.841 0.5208,0.9505 2.682,0.9505 2.057,0 2.904,-0.9245 0.8464,-0.9245 1.419,-3.815 0.638,-3.177 0.1823,-4.115 -0.4427,-0.9375 -2.617,-0.9375 z"
             style="fill:#232f5d"
             id="path3377" /><path
             d="m 379.6,480.3 h -1.81 q 0.4297,-2.174 1.562,-2.917 1.133,-0.7552 3.997,-0.7552 3.112,0 4.023,0.9245 0.9115,0.9115 0.3906,3.49 l -1.641,8.216 h -1.823 l 0.4167,-1.341 -0.0391,-0.013 q -1.354,1.536 -4.544,1.536 -4.714,0 -3.958,-3.789 0.4557,-2.253 1.68,-3.112 1.224,-0.8594 3.984,-0.8594 3.281,0 3.685,1.289 l 0.0391,-0.013 0.2995,-1.51 q 0.4297,-2.135 -0.0391,-2.76 -0.4557,-0.638 -2.435,-0.638 -3.359,0 -3.737,1.888 -0.013,0.0911 -0.0521,0.3646 z m 2.37,2.799 q -2.096,0 -2.826,0.4427 -0.7162,0.4427 -1.003,1.901 -0.3125,1.51 0.2083,2.005 0.5338,0.4818 2.448,0.4818 3.854,0 4.323,-2.344 0.2995,-1.471 -0.3516,-1.979 -0.638,-0.5078 -2.799,-0.5078 z"
             style="fill:#232f5d"
             id="path3379" /><path
             d="m 392,476.8 h 1.758 l -0.3906,1.693 0.0521,0.0391 q 1.211,-1.914 4.518,-1.914 2.669,0 3.424,0.9375 0.755,0.9375 0.2214,3.594 l -1.615,8.099 h -1.823 l 1.589,-7.943 0.0911,-0.4688 q 0.3255,-1.602 -0.1823,-2.148 -0.4948,-0.5599 -2.24,-0.5599 -3.841,0 -4.57,3.633 l -1.497,7.487 h -1.823 z"
             style="fill:#232f5d"
             id="path3381" /><path
             d="m 414.6,476.8 -6.159,13.16 q -1.302,2.786 -2.422,3.828 -1.107,1.042 -2.786,1.042 -0.3385,0 -0.8464,-0.0912 l 0.2995,-1.51 q 0.3646,0.0781 0.612,0.0912 1.458,0.0781 2.669,-2.383 l 0.599,-1.224 q 0.026,-0.0651 0.2083,-0.4688 h -0.6901 l -2.018,-12.45 h 1.94 l 0.8073,5.547 0.4167,2.76 0.1823,1.393 0.2083,1.38 h 0.0521 l 0.612,-1.38 0.612,-1.393 1.25,-2.76 2.513,-5.547 z"
             style="fill:#232f5d"
             id="path3383" /></g></g></g></g></svg>
